<svg xmlns="http://www.w3.org/2000/svg" xmlns:xlink="http://www.w3.org/1999/xlink" width="500" zoomAndPan="magnify" viewBox="0 0 375 374.999991" height="500" preserveAspectRatio="xMidYMid meet" version="1.0"><defs><g/><clipPath id="5a2df80d11"><path d="M 217 52 L 369 52 L 369 323 L 217 323 Z M 217 52 " clip-rule="nonzero"/></clipPath><clipPath id="89e7407987"><path d="M 255.476562 52.976562 L 368.183594 70.109375 L 329.859375 322.210938 L 217.152344 305.078125 Z M 255.476562 52.976562 " clip-rule="nonzero"/></clipPath><clipPath id="f0ecaf4446"><path d="M 38 1 L 136 1 L 136 260 L 38 260 Z M 38 1 " clip-rule="nonzero"/></clipPath><clipPath id="1cf3650c08"><path d="M 38.476562 0.976562 L 151.183594 18.109375 L 112.859375 270.210938 L 0.152344 253.078125 Z M 38.476562 0.976562 " clip-rule="nonzero"/></clipPath><clipPath id="601206bbfe"><path d="M 151.203125 18.113281 L 38.5 0.980469 L 0.175781 253.082031 L 112.882812 270.214844 Z M 151.203125 18.113281 " clip-rule="nonzero"/></clipPath><clipPath id="d7281b3ad8"><path d="M 151.203125 18.113281 L 38.5 0.980469 L 0.175781 253.082031 L 112.882812 270.214844 Z M 151.203125 18.113281 " clip-rule="nonzero"/></clipPath><clipPath id="861e8f9ea8"><rect x="0" width="152" y="0" height="271"/></clipPath></defs><rect x="-37.5" width="450" fill="#ffffff" y="-37.499999" height="449.999989" fill-opacity="1"/><rect x="-37.5" width="450" fill="#f3eff8" y="-37.499999" height="449.999989" fill-opacity="1"/><g clip-path="url(#5a2df80d11)"><g clip-path="url(#89e7407987)"><g transform="matrix(1, 0, 0, 1, 217, 52)"><g clip-path="url(#861e8f9ea8)"><g clip-path="url(#f0ecaf4446)"><g clip-path="url(#1cf3650c08)"><g clip-path="url(#601206bbfe)"><g clip-path="url(#d7281b3ad8)"><path fill="#000000" d="M 129.058594 122.636719 C 126.070312 123.855469 122.949219 124.347656 119.734375 124.253906 C 118.492188 124.214844 117.242188 124.199219 116.003906 124.136719 C 115.171875 124.085938 114.441406 124.335938 113.8125 124.890625 C 113.070312 125.507812 112.304688 126.09375 111.5625 126.710938 C 111.285156 126.914062 111.046875 127.15625 110.851562 127.4375 C 110.066406 128.753906 109.253906 130.058594 108.578125 131.433594 C 107.644531 133.328125 107.199219 135.394531 106.875 137.46875 C 106.476562 140.058594 105.828125 142.578125 104.933594 145.039062 C 104.203125 147.03125 103.703125 149.082031 103.71875 151.191406 C 103.734375 153.703125 103.449219 156.179688 103.128906 158.65625 C 102.789062 161.242188 102.367188 163.824219 101.949219 166.398438 C 101.675781 168.078125 101.398438 169.757812 101.003906 171.410156 C 100.300781 174.390625 99.5625 177.363281 98.742188 180.3125 C 97.84375 183.535156 96.976562 186.777344 95.839844 189.921875 C 94.824219 192.742188 93.457031 195.441406 92.25 198.199219 C 92.152344 198.460938 92.066406 198.726562 92 199 C 92.289062 198.875 92.519531 198.679688 92.6875 198.414062 C 95.441406 194.347656 98.664062 190.683594 102.179688 187.269531 C 104.519531 184.996094 106.976562 182.859375 110.1875 181.949219 C 113.402344 181.039062 116.660156 180.222656 119.917969 179.453125 C 121.433594 179.101562 122.953125 179.058594 124.484375 179.316406 C 124.984375 179.40625 125.46875 179.558594 125.933594 179.773438 C 126.347656 179.960938 126.421875 180.371094 126.230469 180.785156 C 125.984375 181.339844 125.570312 181.707031 124.992188 181.882812 C 123.640625 182.335938 122.664062 183.265625 121.777344 184.324219 C 121.160156 185.066406 120.53125 185.800781 119.9375 186.566406 C 118.214844 188.851562 116.175781 190.808594 113.816406 192.433594 C 111.082031 194.289062 108.304688 196.027344 105.144531 197.09375 C 103.53125 197.636719 101.984375 198.371094 100.390625 198.96875 C 96.292969 200.511719 92.746094 202.941406 89.433594 205.753906 C 88.460938 206.570312 87.714844 207.5625 87.203125 208.726562 C 86.578125 210.125 85.921875 211.511719 85.316406 212.921875 C 84.328125 215.226562 83.105469 217.402344 81.652344 219.445312 C 80.90625 220.496094 80.207031 221.582031 79.488281 222.652344 C 80.015625 222.636719 80.398438 222.445312 80.777344 222.25 C 85.515625 219.78125 90.269531 217.351562 95.332031 215.585938 C 98.710938 214.410156 102.105469 213.289062 105.640625 212.640625 C 106.824219 212.425781 108.023438 212.277344 109.1875 212.578125 C 110.125 212.816406 111.007812 213.175781 111.839844 213.664062 C 112.707031 214.191406 112.621094 215.039062 111.75 215.550781 C 111.359375 215.78125 110.921875 215.925781 110.515625 216.125 C 108.523438 217.097656 106.507812 218.019531 104.554688 219.058594 C 101.289062 220.792969 98.054688 222.570312 94.84375 224.390625 C 89.878906 227.191406 84.730469 229.554688 79.296875 231.292969 C 78.070312 231.6875 76.910156 232.34375 75.792969 233.011719 C 74.625 233.707031 73.5625 234.582031 72.425781 235.332031 C 70.238281 236.773438 68.125 238.296875 66.605469 240.492188 C 62.753906 244.277344 58.886719 248.042969 54.546875 251.277344 C 52.222656 253.011719 49.890625 254.722656 47.300781 256.0625 C 45.992188 256.738281 44.734375 257.523438 43.441406 258.230469 C 42.84375 258.554688 42.226562 258.839844 41.59375 259.089844 C 41.15625 259.265625 40.691406 259.253906 40.359375 258.835938 C 40.078125 258.480469 40.179688 258.101562 40.328125 257.710938 C 40.671875 256.816406 41.304688 256.207031 42.089844 255.695312 C 43.226562 254.945312 44.398438 254.246094 45.472656 253.402344 C 48.96875 250.675781 52.4375 247.917969 55.878906 245.128906 C 56.414062 244.703125 56.871094 244.207031 57.253906 243.636719 C 58.601562 241.589844 59.75 239.441406 60.394531 237.058594 C 60.628906 236.183594 60.851562 235.304688 61.046875 234.417969 C 61.351562 233.03125 61.714844 231.65625 61.90625 230.253906 C 62.300781 227.382812 62.578125 224.492188 62.9375 221.617188 C 63.238281 219.070312 63.796875 216.585938 64.625 214.164062 C 66.738281 208.050781 69.421875 202.132812 70.960938 195.824219 C 71.078125 195.382812 71.269531 194.972656 71.527344 194.59375 C 72 193.875 72.707031 193.859375 73.183594 194.542969 C 73.414062 194.871094 73.578125 195.226562 73.683594 195.613281 C 73.792969 196.113281 73.875 196.617188 73.929688 197.125 C 74.394531 200.101562 74.53125 203.109375 74.582031 206.113281 C 74.609375 207.988281 74.527344 209.855469 74.339844 211.71875 C 74.191406 213.183594 73.835938 214.625 73.539062 216.070312 C 73.3125 217.179688 73.082031 218.292969 72.769531 219.382812 C 71.335938 224.363281 69.515625 229.1875 66.921875 233.699219 C 66.742188 234.015625 66.613281 234.367188 66.40625 234.820312 C 66.636719 234.738281 66.710938 234.734375 66.742188 234.699219 C 68.402344 232.832031 69.882812 230.808594 71.804688 229.175781 C 72.003906 228.976562 72.175781 228.753906 72.316406 228.503906 C 73.152344 227.222656 73.992188 225.9375 74.820312 224.644531 C 76.410156 222.15625 78.019531 219.675781 79.574219 217.164062 C 80.367188 215.917969 81.085938 214.632812 81.722656 213.300781 C 83.394531 209.695312 85.035156 206.070312 86.582031 202.410156 C 87.101562 201.171875 87.308594 199.796875 87.640625 198.480469 C 87.691406 198.257812 87.699219 198.03125 87.667969 197.804688 C 87.359375 195.246094 86.714844 192.785156 85.519531 190.488281 C 84.890625 189.277344 84.207031 188.09375 83.59375 186.878906 C 82.671875 185.03125 81.457031 183.40625 79.945312 182.003906 C 77.226562 179.488281 74.945312 176.566406 72.777344 173.574219 C 70.742188 170.761719 69.121094 167.691406 67.691406 164.527344 C 66.867188 162.703125 65.894531 160.972656 64.414062 159.585938 C 64.230469 159.441406 64.089844 159.265625 63.988281 159.058594 C 63.890625 158.757812 63.789062 158.390625 63.878906 158.117188 C 64.011719 157.746094 64.421875 157.75 64.761719 157.871094 C 65.347656 158.082031 65.957031 158.261719 66.492188 158.570312 C 68.664062 159.800781 70.886719 160.96875 72.957031 162.359375 C 78.984375 166.414062 83.632812 171.671875 86.4375 178.453125 C 86.933594 179.660156 87.386719 180.886719 87.867188 182.105469 C 87.960938 182.34375 88.074219 182.578125 88.339844 183.175781 C 88.515625 181.714844 88.605469 180.671875 88.488281 179.59375 C 87.941406 174.5 86.292969 169.765625 84.113281 165.152344 C 80.9375 158.429688 76.722656 152.519531 71.058594 147.679688 C 68.980469 145.90625 67.0625 143.976562 65.304688 141.882812 C 64.238281 140.605469 63.25 139.304688 62.644531 137.75 C 61.484375 134.789062 60.320312 131.828125 59.234375 128.839844 C 58.769531 127.566406 58.472656 126.222656 58.125 124.90625 C 57.734375 123.429688 57.851562 122.003906 58.757812 120.421875 C 58.839844 120.609375 58.90625 120.796875 58.957031 120.996094 C 59.234375 123.101562 60.5625 124.542969 61.992188 125.976562 C 65.597656 129.59375 69.273438 133.160156 71.9375 137.589844 C 72.03125 137.734375 72.136719 137.867188 72.246094 138 C 73.480469 139.574219 74.484375 141.28125 75.261719 143.128906 C 76.210938 145.4375 77.105469 147.773438 78.042969 150.089844 C 78.742188 151.828125 79.472656 153.546875 80.773438 154.964844 C 81.226562 155.457031 81.546875 156.085938 81.863281 156.683594 C 82.769531 158.390625 83.648438 160.109375 84.53125 161.824219 C 84.757812 162.21875 84.953125 162.628906 85.117188 163.054688 C 86.101562 166.019531 87.683594 168.757812 88.433594 171.816406 C 88.5 171.972656 88.585938 172.113281 88.695312 172.246094 C 88.738281 172.164062 88.792969 172.109375 88.789062 172.0625 C 88.363281 168.285156 87.988281 164.503906 87.484375 160.734375 C 86.992188 157.074219 86.59375 153.410156 86.824219 149.710938 C 86.941406 147.898438 87.121094 146.078125 87.402344 144.285156 C 87.820312 141.566406 88.671875 138.996094 89.960938 136.566406 C 90.148438 136.21875 90.347656 135.839844 90.640625 135.601562 C 90.863281 135.417969 91.292969 135.300781 91.546875 135.390625 C 91.859375 135.535156 92.046875 135.773438 92.109375 136.113281 C 92.121094 136.851562 92.066406 137.585938 91.949219 138.316406 C 91.554688 140.980469 91.664062 143.648438 91.964844 146.300781 C 92.445312 150.527344 93.074219 154.726562 92.957031 159.011719 C 92.878906 161.875 92.699219 164.664062 91.65625 167.363281 C 91.355469 168.15625 91.144531 168.976562 91.019531 169.816406 C 90.253906 174.769531 90.121094 179.761719 90.097656 184.757812 C 90.085938 188.335938 90.074219 191.910156 89.597656 195.460938 C 89.59375 195.691406 89.609375 195.925781 89.640625 196.152344 C 90.875 193.683594 92.019531 191.472656 92.796875 189.109375 C 93.910156 185.714844 94.984375 182.300781 95.964844 178.863281 C 96.832031 175.8125 97.644531 172.734375 98.304688 169.632812 C 98.878906 166.917969 99.21875 164.148438 99.652344 161.402344 C 99.976562 159.328125 100.507812 157.257812 100.539062 155.179688 C 100.582031 152.378906 101.015625 149.636719 101.230469 146.863281 C 101.261719 146.695312 101.277344 146.523438 101.28125 146.355469 C 101.234375 145.683594 101.273438 144.96875 101.0625 144.347656 C 99.671875 140.265625 98.523438 136.089844 96.4375 132.273438 C 95.785156 131.074219 95.113281 129.914062 94.117188 128.9375 C 92.574219 127.429688 91.144531 125.796875 89.625 124.277344 C 88.660156 123.316406 87.640625 122.410156 86.574219 121.5625 C 84.886719 120.214844 83.214844 118.855469 81.746094 117.261719 C 80.402344 115.796875 78.925781 114.453125 77.597656 112.96875 C 76.464844 111.699219 75.410156 110.363281 74.441406 108.964844 C 72.171875 105.671875 71.140625 101.898438 70.515625 97.996094 C 70.292969 96.59375 70.089844 95.191406 69.472656 93.890625 C 68.953125 92.800781 69.132812 91.664062 69.246094 90.535156 C 69.296875 90.023438 69.609375 89.765625 70.011719 89.800781 C 70.414062 89.835938 70.617188 90.082031 70.691406 90.449219 C 70.832031 91.175781 71.027344 91.894531 71.078125 92.628906 C 71.203125 94.492188 72.214844 95.804688 73.625 96.863281 C 74.800781 97.753906 76.019531 98.589844 77.191406 99.488281 C 82.027344 103.191406 86.625 107.136719 90.632812 111.761719 C 92.3125 113.699219 93.898438 115.691406 95.238281 117.875 C 97.851562 122.125 99.542969 126.757812 100.925781 131.523438 C 101.007812 131.808594 101.136719 132.085938 101.246094 132.363281 C 101.480469 130.507812 101.503906 128.699219 101.496094 126.890625 C 101.511719 125.871094 101.46875 124.851562 101.371094 123.835938 C 101.03125 120.960938 100.578125 118.101562 100.257812 115.226562 C 99.996094 112.851562 99.691406 110.496094 99.203125 108.15625 C 98.832031 106.382812 98.601562 104.578125 98.394531 102.78125 C 98.101562 100.234375 97.71875 97.722656 96.890625 95.28125 C 96.632812 94.527344 96.328125 93.761719 96.25 92.984375 C 95.996094 90.414062 94.753906 88.425781 92.921875 86.679688 C 91.847656 85.65625 90.777344 84.675781 89.484375 83.917969 C 88.304688 83.234375 87.179688 82.476562 86.101562 81.640625 C 83.285156 79.441406 80.5 77.1875 77.714844 74.9375 C 75.585938 73.222656 73.609375 71.359375 71.921875 69.1875 C 69.492188 66.039062 67.035156 62.914062 64.648438 59.734375 C 62.839844 57.328125 61.121094 54.855469 59.378906 52.402344 C 59.117188 52.03125 58.90625 51.632812 58.746094 51.207031 C 58.5625 50.714844 58.925781 50.324219 59.460938 50.335938 C 59.96875 50.34375 60.304688 50.613281 60.601562 50.980469 C 61.496094 52.082031 62.417969 53.167969 63.285156 54.289062 C 65.269531 56.855469 67.285156 59.402344 69.734375 61.535156 C 73.210938 64.566406 76.941406 67.25 80.921875 69.578125 C 84.464844 71.660156 87.757812 74.070312 90.582031 77.085938 C 91.109375 77.652344 91.667969 78.1875 92.261719 78.785156 C 92.296875 78.558594 92.363281 78.441406 92.328125 78.367188 C 90.933594 75.191406 89.542969 72.015625 88.132812 68.855469 C 87.414062 67.246094 86.613281 65.679688 85.894531 64.070312 C 84.875 61.789062 83.902344 59.484375 82.902344 57.195312 C 82.265625 55.738281 81.585938 54.292969 80.976562 52.832031 C 80.601562 51.859375 80.03125 51.023438 79.265625 50.316406 C 76.640625 47.96875 74.046875 45.589844 71.449219 43.214844 C 70.398438 42.253906 69.394531 41.25 68.335938 40.304688 C 66.507812 38.664062 64.523438 37.246094 62.25 36.285156 C 60.316406 35.472656 58.355469 34.714844 56.394531 33.972656 C 50.21875 31.636719 45.621094 27.554688 42.679688 21.625 C 41.5625 19.363281 40.800781 17.003906 40.703125 14.453125 C 40.664062 12.921875 40.539062 11.398438 40.328125 9.882812 C 40.03125 7.976562 39.570312 6.097656 39.160156 4.210938 C 39.066406 3.886719 38.945312 3.570312 38.808594 3.265625 C 38.636719 2.796875 38.304688 2.324219 38.6875 1.828125 C 38.988281 1.441406 39.632812 1.519531 40.398438 2.023438 C 40.636719 2.175781 40.847656 2.371094 41.082031 2.542969 C 42.058594 3.226562 42.996094 3.980469 44.027344 4.570312 C 46.148438 5.8125 48.070312 7.3125 49.792969 9.070312 C 54.28125 13.558594 58.886719 17.945312 63.054688 22.765625 C 66.21875 26.425781 69.261719 30.167969 72.015625 34.140625 C 76.390625 40.445312 80.335938 47.019531 84.152344 53.679688 C 86.929688 58.523438 89.25 63.578125 91.367188 68.738281 C 91.601562 69.300781 91.875 69.847656 92.132812 70.402344 C 92.320312 70.144531 92.382812 69.855469 92.320312 69.542969 C 91.679688 66.601562 91.019531 63.667969 90.378906 60.726562 C 89.722656 57.703125 88.714844 54.828125 87.042969 52.199219 C 86.59375 51.46875 86.222656 50.703125 85.929688 49.894531 C 84.515625 46.160156 82.644531 42.652344 80.722656 39.167969 C 79.652344 37.222656 78.707031 35.214844 78.085938 33.078125 C 77.320312 30.460938 76.632812 27.824219 75.90625 25.195312 C 74.863281 21.421875 73.839844 17.636719 72.757812 13.871094 C 72.257812 12.125 71.621094 10.417969 71.085938 8.683594 C 70.914062 8.140625 70.816406 7.585938 70.792969 7.015625 C 70.773438 6.414062 71.433594 5.992188 72.003906 6.214844 C 72.328125 6.335938 72.609375 6.523438 72.851562 6.769531 C 73.535156 7.523438 74.265625 8.257812 74.820312 9.105469 C 75.777344 10.578125 76.667969 12.105469 77.503906 13.65625 C 82.015625 22.054688 85.378906 30.917969 87.894531 40.09375 C 89.46875 45.84375 90.792969 51.660156 92.269531 57.4375 C 93.820312 63.503906 94.945312 69.632812 95.410156 75.882812 C 95.527344 77.457031 95.859375 79.019531 96.117188 80.585938 C 96.167969 80.871094 96.359375 81.128906 96.484375 81.402344 C 96.714844 80.613281 96.75 79.882812 96.773438 79.148438 C 96.804688 78.300781 96.777344 77.445312 96.875 76.609375 C 96.960938 75.882812 97.28125 75.183594 97.34375 74.457031 C 97.636719 71.097656 98.9375 68.09375 100.472656 65.15625 C 100.820312 64.441406 101.125 63.710938 101.390625 62.960938 C 102.207031 60.847656 102.914062 58.679688 103.835938 56.613281 C 105.347656 53.214844 107.335938 50.066406 109.996094 47.472656 C 113.613281 43.945312 118.109375 41.894531 122.871094 40.386719 C 123.308594 40.253906 123.757812 40.210938 124.214844 40.253906 C 125.195312 40.335938 125.585938 41 125.28125 41.929688 C 125.027344 42.710938 124.53125 43.324219 123.9375 43.871094 C 122.980469 44.761719 122.046875 45.675781 121.058594 46.527344 C 117.6875 49.421875 114.523438 52.511719 111.878906 56.105469 C 111.21875 56.960938 110.484375 57.746094 109.675781 58.460938 C 108.214844 59.808594 106.71875 61.121094 105.203125 62.402344 C 104.011719 63.40625 103.089844 64.597656 102.289062 65.929688 C 100.730469 68.523438 100.167969 71.433594 99.683594 74.328125 C 99.09375 77.695312 98.789062 81.085938 98.769531 84.5 C 98.769531 86.226562 98.855469 87.882812 99.351562 89.542969 C 99.621094 90.457031 99.886719 91.390625 99.601562 92.390625 C 99.515625 92.785156 99.550781 93.171875 99.703125 93.546875 C 100.242188 94.9375 100.371094 96.414062 100.675781 97.851562 C 102.699219 107.304688 104.15625 116.832031 104.292969 126.519531 C 104.351562 130.601562 104.3125 134.679688 104.320312 138.761719 C 104.324219 138.953125 104.359375 139.144531 104.382812 139.335938 C 104.761719 138.753906 105.035156 138.128906 105.199219 137.457031 C 105.304688 137.078125 105.316406 136.671875 105.417969 136.289062 C 105.851562 134.585938 106.070312 132.828125 106.78125 131.203125 C 107.347656 129.902344 107.914062 128.605469 108.492188 127.308594 C 108.746094 126.75 108.96875 126.140625 109.300781 125.632812 C 111.101562 122.871094 112.761719 120.003906 114.800781 117.429688 C 116.839844 114.859375 118.3125 112.003906 119.757812 109.113281 C 120.40625 107.832031 120.851562 106.5 120.582031 105.007812 C 120.5 104.578125 120.628906 104.105469 120.675781 103.65625 C 120.855469 101.957031 121.0625 100.261719 121.21875 98.566406 C 121.316406 97.492188 121.367188 96.410156 121.398438 95.335938 C 121.460938 93.351562 121.449219 91.367188 121.554688 89.386719 C 121.628906 87.910156 121.824219 86.441406 121.96875 84.972656 C 122.472656 79.882812 124.566406 75.492188 127.824219 71.609375 C 128.222656 71.132812 128.695312 70.664062 128.921875 70.101562 C 129.621094 68.34375 130.925781 66.960938 131.734375 65.277344 C 131.9375 64.859375 132.609375 64.84375 132.878906 65.261719 C 133.125 65.644531 133.3125 66.054688 133.441406 66.492188 C 134.144531 68.90625 134.558594 71.371094 134.3125 73.890625 C 134.121094 75.800781 134.03125 77.714844 133.769531 79.628906 C 133.328125 83.128906 132.582031 86.558594 131.523438 89.921875 C 130.136719 94.253906 128.554688 98.507812 126.203125 102.4375 C 124.484375 105.3125 122.777344 108.199219 121.125 111.117188 C 119.53125 113.9375 117.914062 116.738281 115.988281 119.351562 C 115.917969 119.453125 115.933594 119.621094 115.886719 119.882812 C 116.460938 119.574219 116.910156 119.339844 117.359375 119.09375 C 119.871094 117.660156 122.570312 116.871094 125.46875 116.804688 C 126.714844 116.78125 127.960938 116.847656 129.210938 116.855469 C 131.65625 116.875 133.90625 117.472656 135.828125 119.0625 L 135.753906 119.742188 C 135.46875 119.925781 135.203125 120.195312 134.890625 120.269531 C 132.824219 120.769531 131 121.84375 129.058594 122.636719 Z M 96.132812 198.523438 C 98.117188 197.691406 100.09375 196.832031 102.082031 196.007812 C 102.921875 195.660156 103.773438 195.335938 104.628906 195.058594 C 108.585938 193.800781 112 191.589844 115.203125 189.007812 C 116.082031 188.292969 116.894531 187.507812 117.636719 186.648438 C 119.160156 184.902344 120.621094 183.101562 122.210938 181.203125 C 121.851562 181.164062 121.546875 181.078125 121.253906 181.109375 C 120.519531 181.179688 119.792969 181.292969 119.074219 181.453125 C 116.261719 182.125 113.453125 182.804688 110.65625 183.53125 C 108.941406 183.976562 107.390625 184.835938 106.007812 185.941406 C 102.574219 188.671875 99.5625 191.824219 96.765625 195.195312 C 96.597656 195.445312 96.441406 195.699219 96.300781 195.964844 C 96.683594 195.914062 96.816406 195.9375 96.894531 195.878906 C 97.761719 195.246094 98.617188 194.589844 99.492188 193.960938 C 101.285156 192.671875 103.054688 191.347656 104.90625 190.136719 C 105.941406 189.464844 107.117188 189.003906 108.242188 188.464844 C 108.367188 188.40625 108.554688 188.460938 108.925781 188.464844 C 108.703125 188.730469 108.617188 188.9375 108.472656 188.996094 C 105.777344 190.144531 103.507812 191.9375 101.257812 193.753906 C 99.671875 195.039062 98.074219 196.316406 96.488281 197.601562 C 96.050781 197.953125 95.640625 198.332031 95.175781 198.738281 C 95.65625 199.023438 95.863281 198.640625 96.132812 198.527344 Z M 70.804688 220.75 C 71.207031 219.335938 71.429688 217.871094 71.71875 216.425781 C 71.960938 215.207031 72.230469 213.988281 72.402344 212.753906 C 72.808594 209.878906 72.65625 206.984375 72.535156 204.097656 C 72.488281 203.078125 72.394531 202.0625 72.308594 201.046875 C 72.253906 200.734375 72.179688 200.429688 72.09375 200.125 C 71.355469 202.246094 70.746094 204.050781 70.101562 205.84375 C 69.199219 208.351562 68.261719 210.847656 67.367188 213.359375 C 66.8125 214.90625 66.472656 216.511719 66.101562 218.121094 C 65.472656 220.851562 65.375 223.632812 65.023438 226.402344 C 66.285156 222.480469 67.398438 218.503906 69.121094 214.363281 C 69.300781 214.90625 69.464844 215.140625 69.4375 215.351562 C 69.320312 216.191406 69.117188 217.015625 68.992188 217.855469 C 68.539062 220.890625 67.742188 223.847656 66.875 226.78125 C 66.15625 229.226562 65.324219 231.640625 64.476562 234.046875 C 63.933594 235.59375 63.269531 237.09375 62.53125 238.9375 C 63.0625 238.347656 63.515625 237.699219 63.890625 237 C 66.882812 231.875 69.1875 226.460938 70.804688 220.75 Z M 77.242188 226.742188 C 76.949219 226.957031 76.746094 227.296875 76.273438 227.847656 C 77.347656 227.691406 77.910156 227.21875 78.53125 226.898438 C 79.152344 226.582031 79.738281 226.265625 80.347656 225.976562 C 81.011719 225.652344 81.6875 225.355469 82.355469 225.046875 C 82.976562 224.761719 83.59375 224.484375 84.214844 224.195312 C 84.890625 223.894531 85.5625 223.597656 86.238281 223.304688 C 86.863281 223.03125 87.492188 222.769531 88.117188 222.5 C 88.792969 222.207031 89.464844 221.902344 90.144531 221.605469 C 90.769531 221.335938 91.386719 221.042969 92.027344 220.824219 C 92.695312 220.59375 93.320312 220.210938 94.140625 220.351562 C 93.847656 220.5625 93.546875 220.753906 93.234375 220.929688 C 89.085938 222.90625 84.90625 224.820312 80.792969 226.867188 C 78.867188 227.820312 77.058594 229.015625 75.199219 230.109375 C 74.761719 230.363281 74.359375 230.65625 74.300781 231.417969 C 76.34375 229.855469 78.605469 229.15625 80.875 228.449219 C 85.125 227.128906 89.082031 225.152344 93.003906 223.085938 C 97.472656 220.734375 101.949219 218.394531 106.433594 216.074219 C 107.226562 215.660156 108.050781 215.296875 109.121094 214.777344 C 108.058594 214.488281 106.984375 214.4375 105.898438 214.625 C 103.140625 215.066406 100.484375 215.878906 97.84375 216.753906 C 91.683594 218.796875 85.847656 221.574219 80.179688 224.726562 C 79.144531 225.296875 78.199219 226.039062 77.242188 226.742188 Z M 75.445312 148.617188 C 74.117188 145.414062 72.953125 142.136719 70.824219 139.339844 C 70.753906 139.25 70.691406 139.15625 70.632812 139.058594 C 68.265625 134.734375 64.886719 131.183594 61.78125 127.421875 C 61.351562 126.90625 60.839844 126.449219 60.144531 125.738281 C 60.230469 126.238281 60.242188 126.472656 60.300781 126.691406 C 61.445312 130.445312 62.828125 134.109375 64.449219 137.679688 C 64.730469 138.304688 65.078125 138.890625 65.492188 139.433594 C 67.324219 141.839844 69.378906 144.03125 71.664062 146.007812 C 71.847656 146.136719 72.035156 146.253906 72.234375 146.363281 C 70.09375 142.820312 67.441406 139.84375 65.726562 136.269531 C 66.1875 135.964844 66.378906 136.273438 66.535156 136.449219 C 67.175781 137.175781 67.835938 137.886719 68.371094 138.679688 C 70.375 141.644531 72.328125 144.644531 74.308594 147.625 C 74.617188 148.085938 74.96875 148.519531 75.34375 149.027344 C 75.402344 148.8125 75.472656 148.691406 75.441406 148.617188 Z M 89.828125 152.859375 C 90.671875 153.914062 90.671875 153.914062 91.074219 161.003906 C 91.324219 158.242188 91.347656 155.476562 91.148438 152.710938 C 90.972656 150.453125 90.679688 148.207031 90.507812 145.949219 C 90.40625 144.597656 90.429688 143.234375 90.398438 141.878906 C 90.375 141.039062 90.351562 140.203125 90.324219 139.152344 C 90.09375 139.652344 89.925781 139.945312 89.8125 140.257812 C 88.683594 143.386719 88.207031 146.636719 88.066406 149.925781 C 87.898438 153.835938 88.3125 157.726562 88.902344 161.59375 C 89.085938 162.824219 89.257812 164.050781 89.484375 165.597656 C 90.191406 161.210938 90.105469 157.125 89.828125 152.859375 Z M 87.484375 184.203125 C 86.480469 180.746094 85.113281 177.4375 83.191406 174.390625 C 80.515625 170.152344 76.984375 166.722656 72.851562 163.914062 C 71.585938 163.054688 70.246094 162.316406 68.914062 161.542969 C 68.660156 161.398438 68.335938 161.386719 68 161.304688 C 68.007812 161.550781 67.976562 161.675781 68.019531 161.757812 C 70.074219 166.011719 72.273438 170.1875 75.429688 173.753906 C 77.652344 176.261719 79.761719 178.859375 82.261719 181.109375 C 83.171875 181.929688 83.875 183.007812 84.554688 184.042969 C 85.199219 185.03125 85.683594 186.125 86.335938 187.132812 C 86.320312 186.394531 86.066406 185.722656 85.746094 185.089844 C 84.5 182.667969 83.257812 180.238281 81.964844 177.839844 C 80.9375 175.941406 79.808594 174.101562 78.769531 172.207031 C 78.324219 171.347656 77.921875 170.472656 77.566406 169.574219 C 77.476562 169.355469 77.523438 169.078125 77.492188 168.640625 C 77.800781 168.898438 77.957031 168.980469 78.039062 169.109375 C 81.089844 173.84375 83.847656 178.734375 86.0625 183.925781 C 86.714844 185.507812 87.195312 187.136719 87.503906 188.816406 C 87.578125 189.191406 87.679688 189.558594 87.769531 189.929688 C 88.234375 187.964844 88.027344 186.050781 87.484375 184.203125 Z M 74.570312 42.5625 C 74.28125 42.140625 73.988281 41.722656 73.671875 41.320312 C 71.324219 38.316406 68.664062 35.605469 65.949219 32.941406 C 63.1875 30.242188 60.402344 27.570312 57.625 24.890625 C 57.183594 24.464844 56.714844 24.074219 56.40625 23.3125 C 57.410156 23.4375 57.878906 24.136719 58.492188 24.570312 C 59.1875 25.058594 59.832031 25.621094 60.488281 26.164062 C 61.101562 26.671875 61.707031 27.1875 62.296875 27.71875 C 62.886719 28.25 63.453125 28.808594 64.023438 29.363281 C 64.597656 29.914062 65.164062 30.472656 65.722656 31.03125 C 66.328125 31.625 66.921875 32.242188 67.550781 32.808594 C 68.117188 33.324219 68.546875 34.011719 69.269531 34.375 C 69.332031 34.242188 69.378906 34.175781 69.367188 34.15625 C 68.597656 33.105469 67.851562 32.035156 67.046875 31.007812 C 62.945312 25.773438 58.511719 20.832031 53.75 16.1875 C 51.71875 14.203125 49.722656 12.1875 47.722656 10.175781 C 45.863281 8.308594 43.703125 6.859375 41.300781 5.445312 C 41.300781 5.804688 41.25 6.066406 41.3125 6.300781 C 41.996094 8.949219 42.363281 11.640625 42.417969 14.375 C 42.457031 16.03125 42.953125 17.625 43.652344 19.132812 C 46.363281 24.9375 50.5625 29.1875 56.601562 31.519531 C 58.03125 32.070312 59.453125 32.636719 60.890625 33.164062 C 64.964844 34.667969 68.402344 37.117188 71.421875 40.203125 C 72.679688 41.523438 74.015625 42.753906 75.429688 43.90625 C 75.144531 43.453125 74.867188 43.003906 74.570312 42.5625 Z M 86.5 44.886719 C 85.941406 42.800781 85.316406 40.742188 84.289062 38.820312 C 83.898438 38.058594 83.59375 37.269531 83.367188 36.445312 C 82.796875 34.476562 82.144531 32.546875 81.226562 30.714844 C 81.191406 30.601562 81.175781 30.488281 81.175781 30.371094 C 81.570312 30.152344 81.667969 30.515625 81.78125 30.71875 C 82.21875 31.511719 82.703125 32.292969 83.019531 33.136719 C 83.9375 35.582031 84.824219 38.039062 86.214844 40.273438 C 86.539062 40.792969 86.726562 41.402344 87.039062 42.097656 C 86.902344 40.03125 84.210938 31.816406 81.300781 24.824219 C 78.96875 19.214844 76.332031 13.757812 72.902344 8.730469 L 72.578125 8.914062 C 72.847656 9.769531 73.125 10.625 73.386719 11.484375 C 74.449219 14.902344 75.527344 18.3125 76.5625 21.734375 C 77.355469 24.394531 78.066406 27.085938 78.882812 29.742188 C 79.804688 32.800781 81.054688 35.714844 82.636719 38.488281 C 83.996094 40.847656 85.25 43.261719 86.683594 45.898438 C 86.59375 45.402344 86.566406 45.140625 86.5 44.886719 Z M 108.746094 53.152344 C 109.707031 51.761719 110.859375 50.492188 111.960938 49.199219 C 112.230469 48.882812 112.648438 48.703125 113.191406 48.316406 C 113.207031 49.191406 112.542969 49.28125 112.332031 49.6875 C 112.105469 50.136719 111.757812 50.527344 111.453125 50.9375 C 111.152344 51.347656 110.820312 51.742188 110.519531 52.148438 C 110.253906 52.515625 110.011719 52.902344 109.765625 53.28125 C 109.488281 53.710938 109.210938 54.140625 108.949219 54.578125 C 108.683594 55.015625 108.410156 55.445312 108.1875 55.902344 C 107.964844 56.351562 107.8125 56.820312 107.730469 57.316406 C 108.921875 56.515625 109.933594 55.53125 110.765625 54.359375 C 113.171875 51.101562 115.988281 48.25 119.019531 45.570312 C 119.699219 44.972656 120.328125 44.324219 120.980469 43.695312 C 117.496094 44.738281 114.277344 46.253906 111.53125 48.628906 C 110.929688 49.144531 110.371094 49.703125 109.863281 50.3125 C 107.480469 53.160156 105.554688 56.292969 104.085938 59.703125 C 104.015625 59.855469 103.960938 60.015625 103.921875 60.179688 C 103.910156 60.292969 103.910156 60.40625 103.925781 60.519531 C 105.535156 58.058594 107.078125 55.5625 108.746094 53.152344 Z M 92.773438 81.285156 C 89.929688 78.015625 86.800781 75.046875 83.078125 72.785156 C 79.054688 70.339844 74.941406 68.039062 71.230469 65.101562 C 70.859375 65.496094 71.210938 65.671875 71.34375 65.855469 C 74.070312 69.683594 77.542969 72.769531 81.261719 75.609375 C 83.0625 76.988281 84.785156 78.472656 86.558594 79.890625 C 87.738281 80.835938 88.894531 81.820312 90.660156 82.566406 C 88.867188 80.441406 86.914062 78.945312 85.484375 76.632812 C 85.957031 76.734375 86.242188 76.710938 86.398438 76.84375 C 87.394531 77.683594 88.410156 78.5 89.324219 79.429688 C 91.03125 81.15625 92.671875 82.953125 94.460938 84.847656 C 94.382812 83.292969 93.609375 82.253906 92.765625 81.285156 Z M 98.753906 128.761719 C 97.316406 124.738281 95.660156 120.816406 93.15625 117.320312 C 92.132812 115.894531 91.066406 114.484375 89.914062 113.160156 C 86.285156 108.988281 82.164062 105.339844 77.832031 101.925781 C 76.058594 100.527344 74.167969 99.269531 72.148438 97.816406 C 72.171875 98.253906 72.15625 98.503906 72.195312 98.746094 C 73.039062 103.980469 75.4375 108.382812 79.21875 112.070312 C 80.234375 113.058594 81.183594 114.113281 82.167969 115.136719 C 83.902344 116.9375 85.6875 118.683594 87.710938 120.164062 C 89.558594 121.515625 91.050781 123.226562 92.589844 124.898438 C 93.9375 126.351562 95.308594 127.785156 96.835938 129.402344 C 96.703125 128.914062 96.660156 128.570312 96.519531 128.273438 C 94.96875 125.042969 93.257812 121.90625 91.207031 118.960938 C 90.097656 117.378906 88.960938 115.824219 87.847656 114.246094 C 87.710938 114.027344 87.589844 113.796875 87.488281 113.554688 C 87.917969 113.273438 88.121094 113.539062 88.292969 113.734375 C 90.839844 116.570312 93.199219 119.535156 95.023438 122.914062 C 97.191406 126.921875 99.035156 131.0625 100.351562 135.433594 C 100.398438 135.535156 100.453125 135.632812 100.523438 135.722656 C 100.269531 133.269531 99.546875 131.003906 98.746094 128.761719 Z M 131.210938 85.136719 C 131.804688 82.996094 131.933594 80.769531 132.355469 78.605469 C 132.707031 76.804688 132.636719 75.003906 132.851562 73.210938 C 133.015625 71.859375 132.828125 70.503906 132.492188 68.890625 C 131.613281 72.757812 130.863281 76.371094 130.195312 80.007812 C 129.523438 83.644531 129.929688 87.335938 129.570312 91.007812 C 130.121094 89.054688 130.667969 87.097656 131.210938 85.136719 Z M 123.703125 101.78125 C 124.171875 100.871094 124.554688 99.929688 124.851562 98.953125 C 125.316406 97.371094 125.867188 95.824219 126.5 94.304688 C 126.949219 93.257812 127.253906 92.171875 127.421875 91.042969 C 127.652344 89.304688 127.867188 87.566406 127.839844 85.789062 C 127.8125 84.28125 128.167969 82.75 128.429688 81.246094 C 128.671875 79.847656 128.992188 78.464844 129.308594 77.085938 C 129.6875 75.425781 130.113281 73.78125 130.488281 72.121094 C 130.648438 71.398438 130.734375 70.667969 130.746094 69.929688 C 129.363281 72.492188 127.128906 74.425781 125.863281 77.070312 C 124.648438 79.605469 123.625 82.136719 123.441406 84.988281 C 123.273438 87.597656 122.78125 90.191406 122.71875 92.796875 C 122.636719 96.101562 122.277344 99.367188 121.972656 102.644531 C 121.917969 103.199219 122.039062 103.769531 122.078125 104.335938 C 122.628906 103.472656 123.246094 102.664062 123.703125 101.78125 Z M 132.917969 119.183594 C 132.050781 118.5625 131.085938 118.234375 130.019531 118.207031 C 127.8125 118.171875 125.601562 117.859375 123.390625 118.160156 C 121.472656 118.425781 119.628906 118.910156 117.960938 120.066406 C 119.203125 119.917969 120.4375 119.679688 121.675781 119.648438 C 122.941406 119.617188 124.234375 119.34375 125.511719 119.742188 C 125.386719 120.445312 124.859375 120.40625 124.441406 120.480469 C 123.378906 120.652344 122.300781 120.753906 121.242188 120.941406 C 119.871094 121.183594 118.542969 121.5625 117.25 122.078125 C 122.972656 123.078125 128.015625 121.992188 132.917969 119.183594 Z M 132.917969 119.183594 " fill-opacity="1" fill-rule="nonzero"/></g></g></g></g></g></g></g></g><g fill="#231f20" fill-opacity="1"><g transform="translate(18.487183, 155.32379)"><g><path d="M 122 -19.5 C 122.507812 -19.457031 122.90625 -19.289062 123.1875 -19 C 123.46875 -18.707031 123.585938 -18.410156 123.546875 -18.109375 C 123.398438 -17.703125 123.1875 -17.441406 122.90625 -17.328125 C 122.625 -17.222656 122.320312 -17.171875 122 -17.171875 C 118.632812 -17.285156 115.265625 -17.171875 111.890625 -16.828125 C 109.628906 -16.648438 107.335938 -16.519531 105.015625 -16.4375 C 102.710938 -16.375 100.429688 -16.234375 98.171875 -16.015625 C 97.628906 -15.972656 97.097656 -15.929688 96.578125 -15.890625 C 95.460938 -15.890625 94.925781 -15.316406 94.96875 -14.171875 C 94.925781 -13.285156 94.90625 -12.375 94.90625 -11.4375 C 94.90625 -11.15625 94.90625 -10.90625 94.90625 -10.6875 C 94.90625 -6.382812 94.90625 -2.085938 94.90625 2.203125 C 94.90625 13.753906 94.90625 25.300781 94.90625 36.84375 C 94.90625 38.90625 94.796875 40.953125 94.578125 42.984375 C 94.492188 44.054688 93.867188 44.59375 92.703125 44.59375 C 91.328125 44.632812 90.53125 44.140625 90.3125 43.109375 C 90.082031 41.429688 89.96875 39.765625 89.96875 38.109375 C 89.96875 26.671875 89.96875 15.21875 89.96875 3.75 C 89.96875 0.113281 89.96875 -3.503906 89.96875 -7.109375 C 89.96875 -7.640625 89.96875 -8.144531 89.96875 -8.625 C 89.96875 -10.320312 89.945312 -12.007812 89.90625 -13.6875 C 89.945312 -15.070312 89.320312 -15.675781 88.03125 -15.5 C 87.019531 -15.394531 86.003906 -15.304688 84.984375 -15.234375 C 80.640625 -14.867188 76.269531 -14.441406 71.875 -13.953125 C 67.957031 -13.515625 64.070312 -13.007812 60.21875 -12.4375 C 58.738281 -12.21875 57.273438 -12.019531 55.828125 -11.84375 C 55.316406 -11.738281 54.84375 -11.644531 54.40625 -11.5625 C 53.957031 -11.476562 53.539062 -11.410156 53.15625 -11.359375 C 52.09375 -11.191406 51.578125 -10.570312 51.609375 -9.5 C 51.578125 -7.851562 51.5625 -6.210938 51.5625 -4.578125 C 51.519531 -2.085938 51.5 0.375 51.5 2.8125 C 51.5 6.550781 51.5 10.285156 51.5 14.015625 C 51.5 18.015625 51.46875 22.03125 51.40625 26.0625 C 51.46875 27.351562 51.40625 28.613281 51.21875 29.84375 C 51.039062 31.019531 50.304688 31.578125 49.015625 31.515625 C 47.679688 31.578125 46.953125 31.019531 46.828125 29.84375 C 46.648438 28.289062 46.5625 26.738281 46.5625 25.1875 C 46.5625 17.601562 46.539062 10.015625 46.5 2.421875 C 46.5 -0.015625 46.5 -2.457031 46.5 -4.90625 C 46.4375 -5.164062 46.4375 -5.457031 46.5 -5.78125 C 46.5 -6.269531 46.46875 -6.753906 46.40625 -7.234375 C 46.46875 -8.742188 46.34375 -9.628906 46.03125 -9.890625 C 45.71875 -10.160156 44.84375 -10.144531 43.40625 -9.84375 C 33.476562 -8.320312 23.628906 -6.453125 13.859375 -4.234375 C 12.085938 -3.796875 10.34375 -3.304688 8.625 -2.765625 C 6.914062 -2.234375 5.242188 -1.546875 3.609375 -0.703125 C 2.710938 -0.171875 1.734375 0.0703125 0.671875 0.03125 C 0.367188 -0.0078125 0.0703125 -0.0976562 -0.21875 -0.234375 C -0.519531 -0.378906 -0.757812 -0.601562 -0.9375 -0.90625 C -1.0625 -1.269531 -1.035156 -1.582031 -0.859375 -1.84375 C -0.691406 -2.101562 -0.476562 -2.328125 -0.21875 -2.515625 C 1.070312 -3.523438 2.476562 -4.28125 4 -4.78125 C 4.082031 -4.78125 4.148438 -4.800781 4.203125 -4.84375 C 7.835938 -6.21875 11.539062 -7.257812 15.3125 -7.96875 C 24.007812 -9.882812 32.757812 -11.507812 41.5625 -12.84375 C 42.789062 -13.0625 44.050781 -13.28125 45.34375 -13.5 C 45.9375 -13.625 46.25 -13.976562 46.28125 -14.5625 C 46.363281 -15.707031 46.40625 -16.859375 46.40625 -18.015625 C 46.46875 -24.367188 46.5 -30.742188 46.5 -37.140625 C 46.5 -45.835938 46.5 -54.535156 46.5 -63.234375 C 46.5 -67.109375 46.539062 -70.976562 46.625 -74.84375 C 46.707031 -76.789062 47.722656 -77.601562 49.671875 -77.28125 C 50.703125 -77.164062 51.28125 -76.59375 51.40625 -75.5625 C 51.46875 -74.675781 51.5 -73.789062 51.5 -72.90625 C 51.5 -72.78125 51.5 -72.644531 51.5 -72.5 C 51.5 -58.738281 51.519531 -44.992188 51.5625 -31.265625 C 51.5625 -27.234375 51.5625 -23.195312 51.5625 -19.15625 C 51.5625 -18.9375 51.5625 -18.71875 51.5625 -18.5 C 51.5625 -18.050781 51.5625 -17.625 51.5625 -17.21875 C 51.5625 -15.96875 51.703125 -15.210938 51.984375 -14.953125 C 52.265625 -14.691406 53.007812 -14.671875 54.21875 -14.890625 C 56 -15.117188 57.753906 -15.34375 59.484375 -15.5625 C 62.046875 -15.925781 64.640625 -16.257812 67.265625 -16.5625 C 72.003906 -17.082031 76.78125 -17.566406 81.59375 -18.015625 C 83.445312 -18.191406 85.332031 -18.394531 87.25 -18.625 C 87.425781 -18.625 87.628906 -18.625 87.859375 -18.625 C 88.160156 -18.625 88.472656 -18.671875 88.796875 -18.765625 C 89.503906 -18.890625 89.875 -19.335938 89.90625 -20.109375 C 89.945312 -21.109375 89.96875 -22.125 89.96875 -23.15625 C 89.96875 -30.925781 89.96875 -38.675781 89.96875 -46.40625 C 89.96875 -48.96875 89.96875 -51.519531 89.96875 -54.0625 C 89.96875 -54.0625 89.988281 -54.0625 90.03125 -54.0625 C 90.03125 -56 90.03125 -57.945312 90.03125 -59.90625 C 90.03125 -68.257812 90.03125 -76.632812 90.03125 -85.03125 C 90.03125 -85.375 90.03125 -85.75 90.03125 -86.15625 C 90.09375 -86.6875 90.125 -87.203125 90.125 -87.703125 C 90.164062 -88.753906 90.601562 -89.425781 91.4375 -89.71875 C 92.28125 -90.007812 93.0625 -89.972656 93.78125 -89.609375 C 94.269531 -89.347656 94.554688 -88.953125 94.640625 -88.421875 C 94.734375 -87.398438 94.78125 -86.382812 94.78125 -85.375 C 94.820312 -67.914062 94.863281 -50.457031 94.90625 -33 C 94.90625 -30.070312 94.90625 -27.164062 94.90625 -24.28125 C 94.90625 -24.15625 94.90625 -24.023438 94.90625 -23.890625 C 94.90625 -23.484375 94.90625 -23.109375 94.90625 -22.765625 C 94.90625 -21.515625 94.953125 -20.617188 95.046875 -20.078125 C 95.140625 -19.546875 95.394531 -19.234375 95.8125 -19.140625 C 96.238281 -19.054688 96.894531 -19.046875 97.78125 -19.109375 C 98.082031 -19.109375 98.4375 -19.109375 98.84375 -19.109375 C 103.0625 -19.179688 107.257812 -19.257812 111.4375 -19.34375 C 113.914062 -19.445312 116.414062 -19.519531 118.9375 -19.5625 C 119.96875 -19.601562 120.988281 -19.582031 122 -19.5 Z M 122 -19.5 "/></g></g></g><g fill="#231f20" fill-opacity="1"><g transform="translate(119.517844, 227.999985)"><g><path d="M 46.671875 -70.65625 L 16.265625 -24.6875 L 46.671875 -24.6875 Z M 55.21875 -16.265625 L 55.21875 0 L 46.671875 0 L 46.671875 -16.265625 L 1.75 -16.265625 L 43.640625 -79.546875 L 55.09375 -79.546875 L 55.21875 -24.6875 L 65.28125 -24.6875 L 65.28125 -16.265625 Z M 55.21875 -16.265625 "/></g></g></g><g fill="#231f20" fill-opacity="1"><g transform="translate(154.906194, 255.014866)"><g><path d="M 122 -19.5 C 122.507812 -19.457031 122.90625 -19.289062 123.1875 -19 C 123.46875 -18.707031 123.585938 -18.410156 123.546875 -18.109375 C 123.398438 -17.703125 123.1875 -17.441406 122.90625 -17.328125 C 122.625 -17.222656 122.320312 -17.171875 122 -17.171875 C 118.632812 -17.285156 115.265625 -17.171875 111.890625 -16.828125 C 109.628906 -16.648438 107.335938 -16.519531 105.015625 -16.4375 C 102.710938 -16.375 100.429688 -16.234375 98.171875 -16.015625 C 97.628906 -15.972656 97.097656 -15.929688 96.578125 -15.890625 C 95.460938 -15.890625 94.925781 -15.316406 94.96875 -14.171875 C 94.925781 -13.285156 94.90625 -12.375 94.90625 -11.4375 C 94.90625 -11.15625 94.90625 -10.90625 94.90625 -10.6875 C 94.90625 -6.382812 94.90625 -2.085938 94.90625 2.203125 C 94.90625 13.753906 94.90625 25.300781 94.90625 36.84375 C 94.90625 38.90625 94.796875 40.953125 94.578125 42.984375 C 94.492188 44.054688 93.867188 44.59375 92.703125 44.59375 C 91.328125 44.632812 90.53125 44.140625 90.3125 43.109375 C 90.082031 41.429688 89.96875 39.765625 89.96875 38.109375 C 89.96875 26.671875 89.96875 15.21875 89.96875 3.75 C 89.96875 0.113281 89.96875 -3.503906 89.96875 -7.109375 C 89.96875 -7.640625 89.96875 -8.144531 89.96875 -8.625 C 89.96875 -10.320312 89.945312 -12.007812 89.90625 -13.6875 C 89.945312 -15.070312 89.320312 -15.675781 88.03125 -15.5 C 87.019531 -15.394531 86.003906 -15.304688 84.984375 -15.234375 C 80.640625 -14.867188 76.269531 -14.441406 71.875 -13.953125 C 67.957031 -13.515625 64.070312 -13.007812 60.21875 -12.4375 C 58.738281 -12.21875 57.273438 -12.019531 55.828125 -11.84375 C 55.316406 -11.738281 54.84375 -11.644531 54.40625 -11.5625 C 53.957031 -11.476562 53.539062 -11.410156 53.15625 -11.359375 C 52.09375 -11.191406 51.578125 -10.570312 51.609375 -9.5 C 51.578125 -7.851562 51.5625 -6.210938 51.5625 -4.578125 C 51.519531 -2.085938 51.5 0.375 51.5 2.8125 C 51.5 6.550781 51.5 10.285156 51.5 14.015625 C 51.5 18.015625 51.46875 22.03125 51.40625 26.0625 C 51.46875 27.351562 51.40625 28.613281 51.21875 29.84375 C 51.039062 31.019531 50.304688 31.578125 49.015625 31.515625 C 47.679688 31.578125 46.953125 31.019531 46.828125 29.84375 C 46.648438 28.289062 46.5625 26.738281 46.5625 25.1875 C 46.5625 17.601562 46.539062 10.015625 46.5 2.421875 C 46.5 -0.015625 46.5 -2.457031 46.5 -4.90625 C 46.4375 -5.164062 46.4375 -5.457031 46.5 -5.78125 C 46.5 -6.269531 46.46875 -6.753906 46.40625 -7.234375 C 46.46875 -8.742188 46.34375 -9.628906 46.03125 -9.890625 C 45.71875 -10.160156 44.84375 -10.144531 43.40625 -9.84375 C 33.476562 -8.320312 23.628906 -6.453125 13.859375 -4.234375 C 12.085938 -3.796875 10.34375 -3.304688 8.625 -2.765625 C 6.914062 -2.234375 5.242188 -1.546875 3.609375 -0.703125 C 2.710938 -0.171875 1.734375 0.0703125 0.671875 0.03125 C 0.367188 -0.0078125 0.0703125 -0.0976562 -0.21875 -0.234375 C -0.519531 -0.378906 -0.757812 -0.601562 -0.9375 -0.90625 C -1.0625 -1.269531 -1.035156 -1.582031 -0.859375 -1.84375 C -0.691406 -2.101562 -0.476562 -2.328125 -0.21875 -2.515625 C 1.070312 -3.523438 2.476562 -4.28125 4 -4.78125 C 4.082031 -4.78125 4.148438 -4.800781 4.203125 -4.84375 C 7.835938 -6.21875 11.539062 -7.257812 15.3125 -7.96875 C 24.007812 -9.882812 32.757812 -11.507812 41.5625 -12.84375 C 42.789062 -13.0625 44.050781 -13.28125 45.34375 -13.5 C 45.9375 -13.625 46.25 -13.976562 46.28125 -14.5625 C 46.363281 -15.707031 46.40625 -16.859375 46.40625 -18.015625 C 46.46875 -24.367188 46.5 -30.742188 46.5 -37.140625 C 46.5 -45.835938 46.5 -54.535156 46.5 -63.234375 C 46.5 -67.109375 46.539062 -70.976562 46.625 -74.84375 C 46.707031 -76.789062 47.722656 -77.601562 49.671875 -77.28125 C 50.703125 -77.164062 51.28125 -76.59375 51.40625 -75.5625 C 51.46875 -74.675781 51.5 -73.789062 51.5 -72.90625 C 51.5 -72.78125 51.5 -72.644531 51.5 -72.5 C 51.5 -58.738281 51.519531 -44.992188 51.5625 -31.265625 C 51.5625 -27.234375 51.5625 -23.195312 51.5625 -19.15625 C 51.5625 -18.9375 51.5625 -18.71875 51.5625 -18.5 C 51.5625 -18.050781 51.5625 -17.625 51.5625 -17.21875 C 51.5625 -15.96875 51.703125 -15.210938 51.984375 -14.953125 C 52.265625 -14.691406 53.007812 -14.671875 54.21875 -14.890625 C 56 -15.117188 57.753906 -15.34375 59.484375 -15.5625 C 62.046875 -15.925781 64.640625 -16.257812 67.265625 -16.5625 C 72.003906 -17.082031 76.78125 -17.566406 81.59375 -18.015625 C 83.445312 -18.191406 85.332031 -18.394531 87.25 -18.625 C 87.425781 -18.625 87.628906 -18.625 87.859375 -18.625 C 88.160156 -18.625 88.472656 -18.671875 88.796875 -18.765625 C 89.503906 -18.890625 89.875 -19.335938 89.90625 -20.109375 C 89.945312 -21.109375 89.96875 -22.125 89.96875 -23.15625 C 89.96875 -30.925781 89.96875 -38.675781 89.96875 -46.40625 C 89.96875 -48.96875 89.96875 -51.519531 89.96875 -54.0625 C 89.96875 -54.0625 89.988281 -54.0625 90.03125 -54.0625 C 90.03125 -56 90.03125 -57.945312 90.03125 -59.90625 C 90.03125 -68.257812 90.03125 -76.632812 90.03125 -85.03125 C 90.03125 -85.375 90.03125 -85.75 90.03125 -86.15625 C 90.09375 -86.6875 90.125 -87.203125 90.125 -87.703125 C 90.164062 -88.753906 90.601562 -89.425781 91.4375 -89.71875 C 92.28125 -90.007812 93.0625 -89.972656 93.78125 -89.609375 C 94.269531 -89.347656 94.554688 -88.953125 94.640625 -88.421875 C 94.734375 -87.398438 94.78125 -86.382812 94.78125 -85.375 C 94.820312 -67.914062 94.863281 -50.457031 94.90625 -33 C 94.90625 -30.070312 94.90625 -27.164062 94.90625 -24.28125 C 94.90625 -24.15625 94.90625 -24.023438 94.90625 -23.890625 C 94.90625 -23.484375 94.90625 -23.109375 94.90625 -22.765625 C 94.90625 -21.515625 94.953125 -20.617188 95.046875 -20.078125 C 95.140625 -19.546875 95.394531 -19.234375 95.8125 -19.140625 C 96.238281 -19.054688 96.894531 -19.046875 97.78125 -19.109375 C 98.082031 -19.109375 98.4375 -19.109375 98.84375 -19.109375 C 103.0625 -19.179688 107.257812 -19.257812 111.4375 -19.34375 C 113.914062 -19.445312 116.414062 -19.519531 118.9375 -19.5625 C 119.96875 -19.601562 120.988281 -19.582031 122 -19.5 Z M 122 -19.5 "/></g></g></g></svg>