<svg xmlns="http://www.w3.org/2000/svg" xmlns:xlink="http://www.w3.org/1999/xlink" zoomAndPan="magnify" preserveAspectRatio="xMidYMid meet" version="1.0" viewBox="26.31 105.43 294.08 150.29"><defs><g/><clipPath id="a7ca71bf2e"><path d="M 252 127 L 329 127 L 329 262 L 252 262 Z M 252 127 " clip-rule="nonzero"/></clipPath><clipPath id="5464c8bbe2"><path d="M 271.882812 127.390625 L 328.238281 135.957031 L 309.1875 261.269531 L 252.835938 252.703125 Z M 271.882812 127.390625 " clip-rule="nonzero"/></clipPath><clipPath id="9578b9abfe"><path d="M 19 0.199219 L 69 0.199219 L 69 129 L 19 129 Z M 19 0.199219 " clip-rule="nonzero"/></clipPath><clipPath id="b2ab39894b"><path d="M 19.882812 0.390625 L 76.238281 8.957031 L 57.1875 134.269531 L 0.835938 125.703125 Z M 19.882812 0.390625 " clip-rule="nonzero"/></clipPath><clipPath id="8b5cda47fd"><path d="M 76.027344 8.925781 L 19.675781 0.359375 L 0.628906 125.671875 L 56.980469 134.238281 Z M 76.027344 8.925781 " clip-rule="nonzero"/></clipPath><clipPath id="a4ab0865e0"><path d="M 76.027344 8.925781 L 19.675781 0.359375 L 0.628906 125.671875 L 56.980469 134.238281 Z M 76.027344 8.925781 " clip-rule="nonzero"/></clipPath><clipPath id="a4873587f7"><rect x="0" width="77" y="0" height="135"/></clipPath></defs><g clip-path="url(#a7ca71bf2e)"><g clip-path="url(#5464c8bbe2)"><g transform="matrix(1, 0, 0, 1, 252, 127)"><g clip-path="url(#a4873587f7)"><g clip-path="url(#9578b9abfe)"><g clip-path="url(#b2ab39894b)"><g clip-path="url(#8b5cda47fd)"><g clip-path="url(#a4ab0865e0)"><path fill="#000000" d="M 65.003906 60.878906 C 63.511719 61.484375 61.949219 61.726562 60.34375 61.679688 C 59.71875 61.660156 59.097656 61.648438 58.476562 61.621094 C 58.058594 61.59375 57.695312 61.71875 57.382812 61.992188 C 57.011719 62.300781 56.628906 62.589844 56.257812 62.898438 C 56.117188 62.996094 56 63.117188 55.902344 63.257812 C 55.511719 63.910156 55.105469 64.558594 54.765625 65.242188 C 54.300781 66.183594 54.078125 67.210938 53.917969 68.242188 C 53.722656 69.527344 53.398438 70.78125 52.953125 72.003906 C 52.589844 72.992188 52.335938 74.015625 52.347656 75.0625 C 52.355469 76.3125 52.214844 77.542969 52.054688 78.773438 C 51.886719 80.058594 51.679688 81.339844 51.46875 82.621094 C 51.332031 83.453125 51.195312 84.289062 51 85.113281 C 50.648438 86.59375 50.28125 88.070312 49.871094 89.535156 C 49.425781 91.136719 48.992188 92.75 48.425781 94.308594 C 47.917969 95.714844 47.238281 97.054688 46.632812 98.421875 C 46.585938 98.554688 46.542969 98.6875 46.507812 98.824219 C 46.652344 98.761719 46.769531 98.664062 46.851562 98.53125 C 48.226562 96.511719 49.835938 94.691406 51.59375 92.996094 C 52.761719 91.867188 53.988281 90.804688 55.59375 90.355469 C 57.199219 89.902344 58.832031 89.5 60.460938 89.117188 C 61.214844 88.945312 61.976562 88.921875 62.742188 89.050781 C 62.992188 89.097656 63.234375 89.171875 63.464844 89.28125 C 63.671875 89.371094 63.710938 89.578125 63.613281 89.78125 C 63.492188 90.058594 63.285156 90.242188 62.996094 90.328125 C 62.320312 90.550781 61.832031 91.015625 61.390625 91.539062 C 61.082031 91.90625 60.769531 92.273438 60.472656 92.652344 C 59.609375 93.789062 58.59375 94.761719 57.414062 95.566406 C 56.046875 96.488281 54.660156 97.351562 53.082031 97.878906 C 52.273438 98.152344 51.5 98.511719 50.703125 98.8125 C 48.65625 99.578125 46.886719 100.78125 45.230469 102.179688 C 44.742188 102.585938 44.371094 103.078125 44.117188 103.652344 C 43.804688 104.347656 43.476562 105.039062 43.175781 105.738281 C 42.679688 106.882812 42.070312 107.964844 41.34375 108.980469 C 40.972656 109.503906 40.625 110.042969 40.265625 110.574219 C 40.527344 110.566406 40.71875 110.472656 40.910156 110.375 C 43.277344 109.148438 45.652344 107.945312 48.183594 107.070312 C 49.871094 106.484375 51.566406 105.929688 53.335938 105.609375 C 53.925781 105.5 54.527344 105.429688 55.109375 105.578125 C 55.578125 105.699219 56.019531 105.878906 56.433594 106.121094 C 56.871094 106.382812 56.828125 106.804688 56.390625 107.058594 C 56.195312 107.171875 55.976562 107.246094 55.773438 107.34375 C 54.777344 107.824219 53.769531 108.28125 52.792969 108.796875 C 51.164062 109.660156 49.546875 110.542969 47.941406 111.445312 C 45.460938 112.835938 42.890625 114.007812 40.171875 114.871094 C 39.558594 115.0625 38.980469 115.390625 38.421875 115.722656 C 37.839844 116.066406 37.308594 116.5 36.738281 116.875 C 35.648438 117.589844 34.589844 118.34375 33.832031 119.433594 C 31.910156 121.316406 29.976562 123.183594 27.808594 124.792969 C 26.648438 125.652344 25.480469 126.503906 24.1875 127.167969 C 23.535156 127.503906 22.90625 127.890625 22.257812 128.242188 C 21.960938 128.402344 21.652344 128.546875 21.335938 128.671875 C 21.117188 128.757812 20.886719 128.75 20.71875 128.542969 C 20.578125 128.367188 20.628906 128.179688 20.703125 127.984375 C 20.875 127.539062 21.191406 127.238281 21.582031 126.980469 C 22.152344 126.609375 22.738281 126.261719 23.273438 125.84375 C 25.019531 124.492188 26.753906 123.121094 28.472656 121.738281 C 28.738281 121.523438 28.96875 121.277344 29.15625 120.996094 C 29.832031 119.980469 30.40625 118.910156 30.726562 117.726562 C 30.84375 117.292969 30.953125 116.855469 31.050781 116.414062 C 31.203125 115.726562 31.382812 115.042969 31.480469 114.34375 C 31.675781 112.917969 31.8125 111.480469 31.988281 110.050781 C 32.140625 108.785156 32.417969 107.550781 32.828125 106.347656 C 33.882812 103.308594 35.222656 100.367188 35.988281 97.234375 C 36.050781 97.015625 36.144531 96.808594 36.273438 96.621094 C 36.507812 96.265625 36.863281 96.257812 37.101562 96.597656 C 37.214844 96.761719 37.296875 96.9375 37.351562 97.128906 C 37.40625 97.378906 37.445312 97.628906 37.476562 97.882812 C 37.707031 99.363281 37.777344 100.855469 37.804688 102.351562 C 37.820312 103.28125 37.78125 104.210938 37.6875 105.136719 C 37.613281 105.863281 37.433594 106.582031 37.289062 107.296875 C 37.175781 107.851562 37.0625 108.40625 36.90625 108.945312 C 36.1875 111.421875 35.28125 113.820312 33.988281 116.058594 C 33.898438 116.214844 33.832031 116.390625 33.730469 116.617188 C 33.847656 116.574219 33.882812 116.574219 33.898438 116.554688 C 34.726562 115.628906 35.46875 114.625 36.425781 113.8125 C 36.527344 113.714844 36.613281 113.601562 36.679688 113.480469 C 37.101562 112.84375 37.519531 112.203125 37.929688 111.5625 C 38.726562 110.324219 39.527344 109.09375 40.304688 107.847656 C 40.703125 107.226562 41.058594 106.585938 41.378906 105.925781 C 42.210938 104.132812 43.03125 102.332031 43.800781 100.515625 C 44.0625 99.898438 44.164062 99.214844 44.332031 98.5625 C 44.355469 98.453125 44.359375 98.339844 44.34375 98.226562 C 44.1875 96.953125 43.863281 95.730469 43.265625 94.589844 C 42.949219 93.988281 42.609375 93.398438 42.300781 92.792969 C 41.839844 91.875 41.230469 91.066406 40.476562 90.367188 C 39.117188 89.117188 37.972656 87.664062 36.890625 86.175781 C 35.871094 84.777344 35.058594 83.25 34.339844 81.675781 C 33.929688 80.769531 33.441406 79.90625 32.699219 79.21875 C 32.609375 79.144531 32.539062 79.058594 32.488281 78.953125 C 32.441406 78.804688 32.390625 78.621094 32.433594 78.488281 C 32.5 78.304688 32.703125 78.304688 32.875 78.363281 C 33.167969 78.472656 33.472656 78.5625 33.738281 78.714844 C 34.828125 79.324219 35.9375 79.90625 36.972656 80.601562 C 39.988281 82.617188 42.316406 85.234375 43.71875 88.605469 C 43.96875 89.207031 44.195312 89.816406 44.433594 90.421875 C 44.484375 90.542969 44.539062 90.65625 44.671875 90.953125 C 44.761719 90.226562 44.804688 89.710938 44.746094 89.175781 C 44.46875 86.640625 43.644531 84.289062 42.550781 81.996094 C 40.960938 78.648438 38.851562 75.710938 36.019531 73.300781 C 34.976562 72.421875 34.015625 71.460938 33.140625 70.417969 C 32.605469 69.78125 32.109375 69.136719 31.804688 68.363281 C 31.226562 66.890625 30.644531 65.417969 30.097656 63.933594 C 29.863281 63.300781 29.714844 62.632812 29.542969 61.976562 C 29.34375 61.242188 29.402344 60.535156 29.855469 59.75 C 29.898438 59.839844 29.929688 59.933594 29.953125 60.03125 C 30.09375 61.078125 30.761719 61.796875 31.476562 62.507812 C 33.277344 64.308594 35.117188 66.082031 36.453125 68.289062 C 36.5 68.359375 36.550781 68.425781 36.605469 68.492188 C 37.226562 69.273438 37.726562 70.125 38.117188 71.042969 C 38.59375 72.191406 39.039062 73.351562 39.507812 74.503906 C 39.859375 75.367188 40.226562 76.222656 40.878906 76.925781 C 41.105469 77.171875 41.265625 77.484375 41.421875 77.785156 C 41.878906 78.628906 42.316406 79.484375 42.757812 80.339844 C 42.871094 80.535156 42.96875 80.738281 43.050781 80.953125 C 43.546875 82.425781 44.339844 83.789062 44.714844 85.308594 C 44.746094 85.386719 44.792969 85.457031 44.84375 85.519531 C 44.867188 85.480469 44.894531 85.453125 44.890625 85.429688 C 44.675781 83.554688 44.488281 81.671875 44.234375 79.800781 C 43.988281 77.976562 43.785156 76.15625 43.902344 74.320312 C 43.957031 73.417969 44.046875 72.515625 44.1875 71.621094 C 44.394531 70.269531 44.820312 68.992188 45.464844 67.785156 C 45.554688 67.613281 45.65625 67.425781 45.800781 67.308594 C 45.914062 67.214844 46.128906 67.15625 46.253906 67.203125 C 46.410156 67.273438 46.503906 67.394531 46.539062 67.5625 C 46.542969 67.929688 46.515625 68.292969 46.457031 68.65625 C 46.261719 69.980469 46.316406 71.308594 46.46875 72.625 C 46.710938 74.726562 47.027344 76.816406 46.96875 78.945312 C 46.933594 80.367188 46.84375 81.753906 46.324219 83.09375 C 46.171875 83.492188 46.066406 83.898438 46.007812 84.316406 C 45.625 86.777344 45.5625 89.257812 45.550781 91.742188 C 45.546875 93.519531 45.542969 95.296875 45.304688 97.0625 C 45.304688 97.175781 45.3125 97.292969 45.328125 97.40625 C 45.945312 96.179688 46.515625 95.078125 46.902344 93.90625 C 47.460938 92.21875 47.996094 90.523438 48.480469 88.816406 C 48.914062 87.296875 49.320312 85.769531 49.648438 84.226562 C 49.933594 82.875 50.105469 81.5 50.320312 80.136719 C 50.480469 79.105469 50.746094 78.074219 50.761719 77.042969 C 50.78125 75.652344 50.996094 74.289062 51.101562 72.910156 C 51.117188 72.824219 51.125 72.742188 51.125 72.65625 C 51.101562 72.324219 51.121094 71.96875 51.015625 71.660156 C 50.320312 69.628906 49.742188 67.554688 48.699219 65.65625 C 48.371094 65.058594 48.035156 64.480469 47.539062 63.996094 C 46.765625 63.246094 46.050781 62.433594 45.289062 61.675781 C 44.804688 61.199219 44.296875 60.75 43.761719 60.324219 C 42.917969 59.65625 42.082031 58.980469 41.347656 58.1875 C 40.675781 57.457031 39.933594 56.789062 39.273438 56.050781 C 38.703125 55.417969 38.175781 54.753906 37.691406 54.058594 C 36.554688 52.421875 36.039062 50.542969 35.726562 48.605469 C 35.613281 47.90625 35.511719 47.210938 35.199219 46.5625 C 34.941406 46.019531 35.03125 45.457031 35.085938 44.894531 C 35.113281 44.640625 35.269531 44.515625 35.46875 44.53125 C 35.667969 44.550781 35.773438 44.671875 35.808594 44.855469 C 35.878906 45.214844 35.976562 45.574219 36.003906 45.9375 C 36.066406 46.863281 36.574219 47.515625 37.277344 48.042969 C 37.867188 48.484375 38.476562 48.902344 39.0625 49.351562 C 41.480469 51.195312 43.78125 53.15625 45.785156 55.457031 C 46.628906 56.421875 47.421875 57.410156 48.09375 58.496094 C 49.398438 60.609375 50.25 62.914062 50.941406 65.285156 C 50.984375 65.425781 51.046875 65.5625 51.101562 65.703125 C 51.21875 64.78125 51.230469 63.882812 51.222656 62.980469 C 51.230469 62.472656 51.210938 61.96875 51.160156 61.460938 C 50.988281 60.035156 50.761719 58.613281 50.601562 57.183594 C 50.46875 56.003906 50.316406 54.832031 50.070312 53.667969 C 49.882812 52.789062 49.769531 51.890625 49.664062 50.996094 C 49.515625 49.730469 49.324219 48.480469 48.910156 47.265625 C 48.777344 46.894531 48.628906 46.511719 48.589844 46.125 C 48.457031 44.847656 47.835938 43.859375 46.921875 42.988281 C 46.382812 42.480469 45.847656 41.992188 45.203125 41.617188 C 44.613281 41.277344 44.046875 40.898438 43.507812 40.480469 C 42.101562 39.386719 40.707031 38.265625 39.3125 37.148438 C 38.25 36.292969 37.257812 35.363281 36.414062 34.285156 C 35.199219 32.71875 33.96875 31.164062 32.773438 29.582031 C 31.871094 28.386719 31.007812 27.15625 30.136719 25.933594 C 30.003906 25.75 29.898438 25.554688 29.820312 25.34375 C 29.726562 25.097656 29.90625 24.902344 30.175781 24.910156 C 30.429688 24.914062 30.597656 25.046875 30.746094 25.230469 C 31.195312 25.777344 31.65625 26.316406 32.089844 26.875 C 33.082031 28.152344 34.089844 29.417969 35.316406 30.480469 C 37.058594 31.988281 38.921875 33.324219 40.914062 34.484375 C 42.6875 35.519531 44.332031 36.71875 45.746094 38.21875 C 46.011719 38.5 46.289062 38.765625 46.585938 39.066406 C 46.605469 38.953125 46.636719 38.894531 46.621094 38.855469 C 45.921875 37.277344 45.222656 35.699219 44.519531 34.128906 C 44.15625 33.328125 43.757812 32.546875 43.398438 31.75 C 42.886719 30.613281 42.398438 29.46875 41.898438 28.328125 C 41.582031 27.605469 41.238281 26.886719 40.933594 26.160156 C 40.746094 25.675781 40.460938 25.257812 40.078125 24.910156 C 38.765625 23.738281 37.464844 22.558594 36.167969 21.375 C 35.640625 20.898438 35.136719 20.398438 34.609375 19.925781 C 33.695312 19.109375 32.699219 18.402344 31.5625 17.925781 C 30.597656 17.519531 29.617188 17.144531 28.636719 16.773438 C 25.546875 15.609375 23.246094 13.578125 21.773438 10.628906 C 21.214844 9.503906 20.832031 8.332031 20.78125 7.0625 C 20.761719 6.300781 20.699219 5.546875 20.59375 4.792969 C 20.441406 3.84375 20.210938 2.910156 20.007812 1.972656 C 19.957031 1.808594 19.898438 1.652344 19.828125 1.5 C 19.742188 1.269531 19.578125 1.035156 19.769531 0.785156 C 19.917969 0.59375 20.242188 0.632812 20.625 0.882812 C 20.746094 0.960938 20.851562 1.058594 20.96875 1.144531 C 21.457031 1.484375 21.925781 1.859375 22.441406 2.152344 C 23.5 2.773438 24.464844 3.519531 25.324219 4.394531 C 27.570312 6.625 29.875 8.808594 31.960938 11.207031 C 33.542969 13.027344 35.066406 14.886719 36.445312 16.863281 C 38.636719 20 40.609375 23.269531 42.523438 26.582031 C 43.910156 28.992188 45.074219 31.503906 46.136719 34.070312 C 46.253906 34.351562 46.390625 34.621094 46.519531 34.898438 C 46.613281 34.769531 46.644531 34.628906 46.613281 34.472656 C 46.292969 33.007812 45.957031 31.550781 45.636719 30.085938 C 45.308594 28.585938 44.804688 27.15625 43.964844 25.847656 C 43.742188 25.484375 43.554688 25.101562 43.410156 24.703125 C 42.699219 22.84375 41.761719 21.101562 40.800781 19.367188 C 40.265625 18.398438 39.792969 17.402344 39.480469 16.339844 C 39.097656 15.039062 38.75 13.726562 38.386719 12.417969 C 37.863281 10.542969 37.351562 8.660156 36.808594 6.789062 C 36.558594 5.921875 36.238281 5.070312 35.96875 4.207031 C 35.882812 3.9375 35.835938 3.664062 35.824219 3.378906 C 35.8125 3.082031 36.140625 2.871094 36.425781 2.984375 C 36.589844 3.042969 36.730469 3.136719 36.851562 3.257812 C 37.195312 3.632812 37.558594 4 37.835938 4.421875 C 38.316406 5.152344 38.761719 5.914062 39.179688 6.683594 C 41.4375 10.859375 43.125 15.265625 44.386719 19.828125 C 45.175781 22.6875 45.839844 25.582031 46.582031 28.453125 C 47.359375 31.46875 47.925781 34.515625 48.160156 37.625 C 48.21875 38.40625 48.386719 39.183594 48.515625 39.960938 C 48.539062 40.101562 48.636719 40.230469 48.699219 40.367188 C 48.8125 39.976562 48.832031 39.613281 48.84375 39.246094 C 48.859375 38.824219 48.84375 38.402344 48.894531 37.988281 C 48.9375 37.625 49.09375 37.277344 49.125 36.914062 C 49.269531 35.246094 49.921875 33.753906 50.6875 32.292969 C 50.859375 31.9375 51.011719 31.574219 51.144531 31.203125 C 51.550781 30.152344 51.902344 29.078125 52.363281 28.046875 C 53.117188 26.359375 54.109375 24.796875 55.441406 23.507812 C 57.246094 21.757812 59.492188 20.738281 61.871094 19.992188 C 62.09375 19.925781 62.316406 19.902344 62.546875 19.925781 C 63.035156 19.96875 63.230469 20.296875 63.078125 20.761719 C 62.953125 21.148438 62.703125 21.453125 62.40625 21.722656 C 61.929688 22.167969 61.464844 22.621094 60.96875 23.042969 C 59.285156 24.480469 57.707031 26.015625 56.386719 27.800781 C 56.054688 28.222656 55.6875 28.613281 55.285156 28.96875 C 54.554688 29.640625 53.808594 30.289062 53.050781 30.925781 C 52.453125 31.425781 51.996094 32.015625 51.59375 32.679688 C 50.816406 33.96875 50.535156 35.414062 50.296875 36.855469 C 50.003906 38.527344 49.851562 40.210938 49.84375 41.910156 C 49.84375 42.765625 49.886719 43.589844 50.136719 44.417969 C 50.273438 44.871094 50.40625 45.335938 50.261719 45.832031 C 50.222656 46.027344 50.238281 46.21875 50.316406 46.40625 C 50.585938 47.097656 50.648438 47.832031 50.804688 48.546875 C 51.816406 53.246094 52.550781 57.980469 52.625 62.800781 C 52.652344 64.828125 52.636719 66.855469 52.644531 68.882812 C 52.644531 68.980469 52.660156 69.074219 52.675781 69.167969 C 52.863281 68.882812 53 68.570312 53.082031 68.234375 C 53.132812 68.046875 53.140625 67.84375 53.191406 67.65625 C 53.40625 66.808594 53.515625 65.933594 53.867188 65.128906 C 54.152344 64.480469 54.433594 63.835938 54.722656 63.195312 C 54.847656 62.914062 54.960938 62.613281 55.128906 62.359375 C 56.027344 60.988281 56.855469 59.5625 57.871094 58.285156 C 58.890625 57.007812 59.625 55.589844 60.347656 54.152344 C 60.667969 53.515625 60.890625 52.855469 60.757812 52.113281 C 60.714844 51.898438 60.78125 51.664062 60.804688 51.441406 C 60.890625 50.597656 60.996094 49.753906 61.070312 48.910156 C 61.121094 48.375 61.144531 47.839844 61.160156 47.304688 C 61.191406 46.320312 61.183594 45.332031 61.234375 44.347656 C 61.273438 43.613281 61.371094 42.882812 61.441406 42.152344 C 61.691406 39.625 62.738281 37.441406 64.363281 35.515625 C 64.5625 35.277344 64.796875 35.042969 64.910156 34.765625 C 65.257812 33.890625 65.910156 33.203125 66.316406 32.367188 C 66.417969 32.160156 66.753906 32.152344 66.886719 32.363281 C 67.007812 32.550781 67.105469 32.753906 67.167969 32.972656 C 67.523438 34.171875 67.730469 35.398438 67.605469 36.652344 C 67.515625 37.601562 67.46875 38.550781 67.339844 39.503906 C 67.121094 41.242188 66.746094 42.945312 66.21875 44.617188 C 65.53125 46.773438 64.738281 48.886719 63.566406 50.835938 C 62.707031 52.265625 61.855469 53.699219 61.03125 55.148438 C 60.234375 56.550781 59.429688 57.941406 58.46875 59.242188 C 58.429688 59.292969 58.441406 59.375 58.417969 59.503906 C 58.703125 59.351562 58.929688 59.234375 59.152344 59.113281 C 60.410156 58.402344 61.753906 58.011719 63.203125 57.980469 C 63.828125 57.96875 64.449219 58 65.074219 58.007812 C 66.300781 58.015625 67.425781 58.316406 68.386719 59.105469 L 68.347656 59.445312 C 68.207031 59.535156 68.074219 59.667969 67.917969 59.707031 C 66.886719 59.953125 65.972656 60.488281 65.003906 60.878906 Z M 48.574219 98.589844 C 49.566406 98.175781 50.554688 97.75 51.550781 97.339844 C 51.96875 97.167969 52.394531 97.003906 52.820312 96.867188 C 54.800781 96.246094 56.507812 95.148438 58.105469 93.867188 C 58.542969 93.511719 58.949219 93.121094 59.320312 92.695312 C 60.082031 91.828125 60.8125 90.929688 61.605469 89.988281 C 61.425781 89.96875 61.273438 89.925781 61.128906 89.941406 C 60.761719 89.976562 60.398438 90.035156 60.035156 90.113281 C 58.632812 90.445312 57.226562 90.78125 55.832031 91.140625 C 54.972656 91.363281 54.199219 91.789062 53.507812 92.335938 C 51.792969 93.691406 50.289062 95.257812 48.890625 96.933594 C 48.804688 97.054688 48.730469 97.183594 48.660156 97.316406 C 48.851562 97.289062 48.917969 97.300781 48.953125 97.273438 C 49.390625 96.957031 49.816406 96.632812 50.253906 96.320312 C 51.148438 95.679688 52.03125 95.023438 52.957031 94.421875 C 53.476562 94.089844 54.0625 93.859375 54.625 93.59375 C 54.6875 93.5625 54.78125 93.589844 54.964844 93.59375 C 54.855469 93.726562 54.8125 93.828125 54.738281 93.855469 C 53.394531 94.425781 52.261719 95.316406 51.136719 96.21875 C 50.34375 96.855469 49.546875 97.488281 48.753906 98.128906 C 48.535156 98.304688 48.328125 98.492188 48.097656 98.691406 C 48.335938 98.835938 48.441406 98.644531 48.574219 98.589844 Z M 35.921875 109.625 C 36.121094 108.921875 36.234375 108.195312 36.378906 107.476562 C 36.5 106.871094 36.632812 106.261719 36.71875 105.652344 C 36.921875 104.21875 36.84375 102.78125 36.78125 101.347656 C 36.757812 100.839844 36.707031 100.335938 36.667969 99.832031 C 36.636719 99.675781 36.601562 99.523438 36.558594 99.371094 C 36.191406 100.425781 35.886719 101.324219 35.566406 102.214844 C 35.117188 103.460938 34.648438 104.699219 34.203125 105.949219 C 33.925781 106.71875 33.757812 107.515625 33.570312 108.316406 C 33.257812 109.671875 33.210938 111.054688 33.035156 112.429688 C 33.664062 110.484375 34.21875 108.507812 35.078125 106.449219 C 35.167969 106.71875 35.25 106.835938 35.234375 106.941406 C 35.179688 107.355469 35.078125 107.769531 35.015625 108.183594 C 34.789062 109.695312 34.390625 111.164062 33.960938 112.621094 C 33.601562 113.835938 33.1875 115.035156 32.765625 116.230469 C 32.492188 117 32.164062 117.746094 31.796875 118.660156 C 32.0625 118.367188 32.285156 118.046875 32.472656 117.699219 C 33.96875 115.152344 35.117188 112.460938 35.921875 109.625 Z M 39.144531 112.605469 C 38.996094 112.714844 38.898438 112.882812 38.660156 113.15625 C 39.195312 113.078125 39.476562 112.84375 39.789062 112.683594 C 40.097656 112.527344 40.390625 112.371094 40.695312 112.226562 C 41.027344 112.066406 41.367188 111.917969 41.699219 111.765625 C 42.011719 111.625 42.316406 111.484375 42.628906 111.34375 C 42.964844 111.195312 43.300781 111.046875 43.640625 110.902344 C 43.953125 110.765625 44.265625 110.636719 44.578125 110.5 C 44.917969 110.355469 45.253906 110.207031 45.59375 110.058594 C 45.902344 109.925781 46.214844 109.78125 46.535156 109.671875 C 46.867188 109.554688 47.179688 109.367188 47.589844 109.4375 C 47.445312 109.542969 47.292969 109.636719 47.136719 109.722656 C 45.0625 110.703125 42.976562 111.65625 40.917969 112.667969 C 39.957031 113.140625 39.054688 113.738281 38.125 114.277344 C 37.90625 114.40625 37.703125 114.550781 37.675781 114.929688 C 38.695312 114.152344 39.828125 113.804688 40.960938 113.457031 C 43.085938 112.800781 45.0625 111.820312 47.023438 110.796875 C 49.253906 109.628906 51.492188 108.46875 53.734375 107.316406 C 54.128906 107.113281 54.542969 106.929688 55.074219 106.671875 C 54.542969 106.527344 54.007812 106.503906 53.464844 106.597656 C 52.085938 106.8125 50.757812 107.214844 49.4375 107.648438 C 46.359375 108.664062 43.441406 110.039062 40.613281 111.605469 C 40.09375 111.886719 39.621094 112.257812 39.144531 112.605469 Z M 38.210938 73.769531 C 37.546875 72.175781 36.964844 70.546875 35.898438 69.15625 C 35.863281 69.113281 35.828125 69.066406 35.800781 69.015625 C 34.617188 66.867188 32.925781 65.097656 31.371094 63.230469 C 31.15625 62.972656 30.898438 62.742188 30.550781 62.390625 C 30.59375 62.640625 30.601562 62.757812 30.628906 62.863281 C 31.203125 64.730469 31.898438 66.550781 32.710938 68.328125 C 32.851562 68.640625 33.023438 68.929688 33.230469 69.203125 C 34.148438 70.398438 35.175781 71.488281 36.320312 72.472656 C 36.410156 72.535156 36.507812 72.59375 36.605469 72.648438 C 35.535156 70.886719 34.207031 69.40625 33.347656 67.628906 C 33.578125 67.476562 33.671875 67.628906 33.75 67.71875 C 34.070312 68.078125 34.402344 68.433594 34.671875 68.828125 C 35.671875 70.300781 36.652344 71.792969 37.640625 73.277344 C 37.796875 73.507812 37.972656 73.722656 38.160156 73.972656 C 38.1875 73.867188 38.226562 73.808594 38.210938 73.769531 Z M 45.402344 75.886719 C 45.828125 76.410156 45.828125 76.410156 46.03125 79.933594 C 46.152344 78.5625 46.164062 77.1875 46.0625 75.8125 C 45.972656 74.691406 45.828125 73.574219 45.742188 72.449219 C 45.6875 71.777344 45.699219 71.101562 45.683594 70.425781 C 45.671875 70.011719 45.660156 69.59375 45.644531 69.074219 C 45.53125 69.320312 45.445312 69.464844 45.390625 69.621094 C 44.828125 71.175781 44.589844 72.792969 44.519531 74.425781 C 44.4375 76.371094 44.648438 78.304688 44.945312 80.226562 C 45.039062 80.835938 45.121094 81.449219 45.238281 82.21875 C 45.589844 80.035156 45.542969 78.007812 45.402344 75.886719 Z M 44.246094 91.464844 C 43.742188 89.746094 43.054688 88.101562 42.09375 86.585938 C 40.753906 84.476562 38.988281 82.769531 36.921875 81.371094 C 36.289062 80.945312 35.617188 80.578125 34.949219 80.191406 C 34.824219 80.121094 34.664062 80.113281 34.492188 80.074219 C 34.496094 80.195312 34.480469 80.257812 34.503906 80.300781 C 35.53125 82.414062 36.632812 84.492188 38.214844 86.265625 C 39.324219 87.511719 40.382812 88.804688 41.632812 89.925781 C 42.089844 90.332031 42.441406 90.867188 42.78125 91.382812 C 43.101562 91.875 43.34375 92.417969 43.671875 92.921875 C 43.664062 92.554688 43.535156 92.21875 43.375 91.90625 C 42.753906 90.699219 42.132812 89.492188 41.484375 88.300781 C 40.96875 87.355469 40.402344 86.441406 39.882812 85.496094 C 39.660156 85.070312 39.460938 84.632812 39.28125 84.1875 C 39.234375 84.078125 39.257812 83.941406 39.242188 83.722656 C 39.398438 83.851562 39.476562 83.894531 39.515625 83.957031 C 41.042969 86.3125 42.425781 88.746094 43.535156 91.328125 C 43.859375 92.113281 44.101562 92.921875 44.257812 93.757812 C 44.296875 93.945312 44.347656 94.128906 44.390625 94.3125 C 44.621094 93.335938 44.519531 92.382812 44.246094 91.464844 Z M 37.726562 21.050781 C 37.582031 20.84375 37.433594 20.632812 37.277344 20.433594 C 36.101562 18.941406 34.769531 17.589844 33.410156 16.265625 C 32.03125 14.921875 30.636719 13.59375 29.246094 12.257812 C 29.027344 12.046875 28.789062 11.851562 28.636719 11.472656 C 29.136719 11.539062 29.375 11.882812 29.679688 12.101562 C 30.027344 12.34375 30.351562 12.625 30.679688 12.894531 C 30.984375 13.144531 31.289062 13.402344 31.582031 13.667969 C 31.878906 13.933594 32.164062 14.210938 32.449219 14.484375 C 32.734375 14.761719 33.019531 15.039062 33.296875 15.316406 C 33.601562 15.613281 33.898438 15.917969 34.210938 16.199219 C 34.496094 16.457031 34.710938 16.796875 35.074219 16.980469 C 35.101562 16.914062 35.128906 16.878906 35.121094 16.871094 C 34.738281 16.347656 34.363281 15.816406 33.960938 15.304688 C 31.90625 12.699219 29.6875 10.242188 27.308594 7.933594 C 26.289062 6.945312 25.292969 5.941406 24.289062 4.941406 C 23.359375 4.011719 22.277344 3.292969 21.078125 2.585938 C 21.078125 2.765625 21.050781 2.894531 21.082031 3.011719 C 21.425781 4.328125 21.613281 5.667969 21.640625 7.027344 C 21.660156 7.847656 21.910156 8.640625 22.261719 9.390625 C 23.617188 12.277344 25.71875 14.394531 28.738281 15.554688 C 29.453125 15.828125 30.164062 16.109375 30.882812 16.375 C 32.921875 17.121094 34.640625 18.339844 36.152344 19.878906 C 36.78125 20.535156 37.449219 21.148438 38.15625 21.71875 C 38.015625 21.492188 37.875 21.269531 37.726562 21.050781 Z M 43.691406 22.210938 C 43.410156 21.175781 43.097656 20.152344 42.582031 19.195312 C 42.390625 18.816406 42.234375 18.425781 42.121094 18.015625 C 41.835938 17.035156 41.507812 16.078125 41.046875 15.164062 C 41.03125 15.109375 41.023438 15.050781 41.023438 14.996094 C 41.21875 14.886719 41.269531 15.066406 41.328125 15.167969 C 41.542969 15.5625 41.785156 15.949219 41.945312 16.371094 C 42.40625 17.585938 42.851562 18.808594 43.546875 19.917969 C 43.710938 20.175781 43.804688 20.480469 43.960938 20.828125 C 43.890625 19.800781 42.542969 15.714844 41.082031 12.234375 C 39.914062 9.449219 38.59375 6.734375 36.878906 4.234375 L 36.714844 4.324219 C 36.851562 4.75 36.988281 5.175781 37.121094 5.601562 C 37.652344 7.304688 38.195312 8.996094 38.710938 10.699219 C 39.113281 12.023438 39.46875 13.359375 39.878906 14.679688 C 40.339844 16.203125 40.964844 17.652344 41.757812 19.03125 C 42.4375 20.203125 43.066406 21.402344 43.785156 22.714844 C 43.738281 22.46875 43.726562 22.335938 43.691406 22.210938 Z M 54.816406 26.332031 C 55.296875 25.640625 55.871094 25.007812 56.421875 24.367188 C 56.554688 24.210938 56.765625 24.121094 57.039062 23.929688 C 57.046875 24.363281 56.710938 24.40625 56.609375 24.609375 C 56.496094 24.832031 56.320312 25.027344 56.167969 25.230469 C 56.019531 25.433594 55.855469 25.632812 55.703125 25.832031 C 55.570312 26.015625 55.449219 26.207031 55.328125 26.394531 C 55.1875 26.609375 55.050781 26.820312 54.917969 27.039062 C 54.785156 27.257812 54.648438 27.472656 54.539062 27.699219 C 54.425781 27.921875 54.351562 28.152344 54.3125 28.398438 C 54.90625 28.003906 55.410156 27.511719 55.828125 26.933594 C 57.027344 25.3125 58.4375 23.894531 59.949219 22.566406 C 60.289062 22.269531 60.601562 21.945312 60.929688 21.636719 C 59.1875 22.152344 57.582031 22.902344 56.207031 24.082031 C 55.90625 24.339844 55.628906 24.617188 55.375 24.917969 C 54.183594 26.335938 53.222656 27.890625 52.488281 29.585938 C 52.457031 29.660156 52.429688 29.742188 52.410156 29.824219 C 52.402344 29.878906 52.402344 29.933594 52.410156 29.992188 C 53.214844 28.769531 53.984375 27.527344 54.816406 26.332031 Z M 46.84375 40.308594 C 45.421875 38.683594 43.855469 37.203125 41.992188 36.078125 C 39.980469 34.859375 37.925781 33.714844 36.066406 32.253906 C 35.878906 32.449219 36.058594 32.539062 36.121094 32.628906 C 37.488281 34.535156 39.226562 36.066406 41.085938 37.480469 C 41.988281 38.167969 42.851562 38.90625 43.738281 39.613281 C 44.328125 40.082031 44.90625 40.574219 45.789062 40.945312 C 44.890625 39.886719 43.914062 39.140625 43.199219 37.992188 C 43.433594 38.042969 43.578125 38.03125 43.65625 38.097656 C 44.152344 38.515625 44.664062 38.921875 45.117188 39.382812 C 45.972656 40.242188 46.792969 41.136719 47.6875 42.078125 C 47.648438 41.308594 47.261719 40.789062 46.839844 40.308594 Z M 49.855469 63.910156 C 49.132812 61.910156 48.304688 59.960938 47.050781 58.222656 C 46.539062 57.511719 46.003906 56.808594 45.429688 56.152344 C 43.613281 54.078125 41.550781 52.261719 39.382812 50.5625 C 38.496094 49.867188 37.550781 49.238281 36.539062 48.515625 C 36.550781 48.734375 36.546875 48.859375 36.566406 48.980469 C 36.988281 51.582031 38.1875 53.769531 40.082031 55.605469 C 40.589844 56.097656 41.066406 56.621094 41.558594 57.132812 C 42.425781 58.027344 43.316406 58.894531 44.332031 59.632812 C 45.253906 60.304688 46 61.15625 46.773438 61.988281 C 47.445312 62.710938 48.132812 63.425781 48.894531 64.230469 C 48.828125 63.984375 48.808594 63.8125 48.738281 63.667969 C 47.960938 62.058594 47.105469 60.5 46.078125 59.035156 C 45.523438 58.25 44.953125 57.476562 44.394531 56.691406 C 44.328125 56.582031 44.269531 56.464844 44.214844 56.347656 C 44.429688 56.207031 44.53125 56.339844 44.617188 56.4375 C 45.890625 57.847656 47.074219 59.320312 47.988281 61 C 49.074219 62.996094 49.996094 65.054688 50.65625 67.226562 C 50.679688 67.277344 50.707031 67.328125 50.742188 67.371094 C 50.617188 66.152344 50.253906 65.027344 49.851562 63.910156 Z M 66.0625 42.238281 C 66.359375 41.175781 66.421875 40.070312 66.632812 38.992188 C 66.804688 38.097656 66.769531 37.203125 66.878906 36.3125 C 66.957031 35.640625 66.863281 34.96875 66.695312 34.164062 C 66.257812 36.085938 65.882812 37.882812 65.550781 39.691406 C 65.21875 41.496094 65.421875 43.332031 65.246094 45.160156 C 65.519531 44.1875 65.792969 43.214844 66.0625 42.238281 Z M 62.316406 50.507812 C 62.550781 50.058594 62.742188 49.589844 62.886719 49.105469 C 63.121094 48.320312 63.394531 47.550781 63.710938 46.792969 C 63.933594 46.273438 64.085938 45.734375 64.167969 45.175781 C 64.285156 44.308594 64.390625 43.445312 64.375 42.5625 C 64.363281 41.8125 64.539062 41.050781 64.671875 40.304688 C 64.789062 39.609375 64.949219 38.921875 65.109375 38.238281 C 65.296875 37.414062 65.507812 36.59375 65.695312 35.769531 C 65.773438 35.410156 65.816406 35.046875 65.824219 34.679688 C 65.132812 35.953125 64.015625 36.914062 63.386719 38.226562 C 62.777344 39.488281 62.269531 40.746094 62.175781 42.164062 C 62.09375 43.460938 61.851562 44.75 61.820312 46.042969 C 61.78125 47.6875 61.601562 49.308594 61.449219 50.9375 C 61.425781 51.214844 61.484375 51.5 61.503906 51.777344 C 61.78125 51.351562 62.089844 50.949219 62.316406 50.507812 Z M 66.929688 59.164062 C 66.496094 58.855469 66.011719 58.691406 65.480469 58.679688 C 64.375 58.660156 63.273438 58.503906 62.167969 58.652344 C 61.207031 58.78125 60.285156 59.023438 59.453125 59.597656 C 60.074219 59.523438 60.691406 59.40625 61.3125 59.390625 C 61.941406 59.375 62.589844 59.242188 63.230469 59.4375 C 63.164062 59.789062 62.902344 59.769531 62.691406 59.804688 C 62.160156 59.890625 61.621094 59.941406 61.09375 60.035156 C 60.410156 60.152344 59.746094 60.339844 59.101562 60.597656 C 61.960938 61.09375 64.480469 60.558594 66.929688 59.164062 Z M 66.929688 59.164062 " fill-opacity="1" fill-rule="nonzero"/></g></g></g></g></g></g></g></g><g fill="#231f20" fill-opacity="1"><g transform="translate(27.32258, 195.34553)"><g><path d="M 122 -19.5 C 122.507812 -19.457031 122.90625 -19.289062 123.1875 -19 C 123.46875 -18.707031 123.585938 -18.410156 123.546875 -18.109375 C 123.398438 -17.703125 123.1875 -17.441406 122.90625 -17.328125 C 122.625 -17.222656 122.320312 -17.171875 122 -17.171875 C 118.632812 -17.285156 115.265625 -17.171875 111.890625 -16.828125 C 109.628906 -16.648438 107.335938 -16.519531 105.015625 -16.4375 C 102.710938 -16.375 100.429688 -16.234375 98.171875 -16.015625 C 97.628906 -15.972656 97.097656 -15.929688 96.578125 -15.890625 C 95.460938 -15.890625 94.925781 -15.316406 94.96875 -14.171875 C 94.925781 -13.285156 94.90625 -12.375 94.90625 -11.4375 C 94.90625 -11.15625 94.90625 -10.90625 94.90625 -10.6875 C 94.90625 -6.382812 94.90625 -2.085938 94.90625 2.203125 C 94.90625 13.753906 94.90625 25.300781 94.90625 36.84375 C 94.90625 38.90625 94.796875 40.953125 94.578125 42.984375 C 94.492188 44.054688 93.867188 44.59375 92.703125 44.59375 C 91.328125 44.632812 90.53125 44.140625 90.3125 43.109375 C 90.082031 41.429688 89.96875 39.765625 89.96875 38.109375 C 89.96875 26.671875 89.96875 15.21875 89.96875 3.75 C 89.96875 0.113281 89.96875 -3.503906 89.96875 -7.109375 C 89.96875 -7.640625 89.96875 -8.144531 89.96875 -8.625 C 89.96875 -10.320312 89.945312 -12.007812 89.90625 -13.6875 C 89.945312 -15.070312 89.320312 -15.675781 88.03125 -15.5 C 87.019531 -15.394531 86.003906 -15.304688 84.984375 -15.234375 C 80.640625 -14.867188 76.269531 -14.441406 71.875 -13.953125 C 67.957031 -13.515625 64.070312 -13.007812 60.21875 -12.4375 C 58.738281 -12.21875 57.273438 -12.019531 55.828125 -11.84375 C 55.316406 -11.738281 54.84375 -11.644531 54.40625 -11.5625 C 53.957031 -11.476562 53.539062 -11.410156 53.15625 -11.359375 C 52.09375 -11.191406 51.578125 -10.570312 51.609375 -9.5 C 51.578125 -7.851562 51.5625 -6.210938 51.5625 -4.578125 C 51.519531 -2.085938 51.5 0.375 51.5 2.8125 C 51.5 6.550781 51.5 10.285156 51.5 14.015625 C 51.5 18.015625 51.46875 22.03125 51.40625 26.0625 C 51.46875 27.351562 51.40625 28.613281 51.21875 29.84375 C 51.039062 31.019531 50.304688 31.578125 49.015625 31.515625 C 47.679688 31.578125 46.953125 31.019531 46.828125 29.84375 C 46.648438 28.289062 46.5625 26.738281 46.5625 25.1875 C 46.5625 17.601562 46.539062 10.015625 46.5 2.421875 C 46.5 -0.015625 46.5 -2.457031 46.5 -4.90625 C 46.4375 -5.164062 46.4375 -5.457031 46.5 -5.78125 C 46.5 -6.269531 46.46875 -6.753906 46.40625 -7.234375 C 46.46875 -8.742188 46.34375 -9.628906 46.03125 -9.890625 C 45.71875 -10.160156 44.84375 -10.144531 43.40625 -9.84375 C 33.476562 -8.320312 23.628906 -6.453125 13.859375 -4.234375 C 12.085938 -3.796875 10.34375 -3.304688 8.625 -2.765625 C 6.914062 -2.234375 5.242188 -1.546875 3.609375 -0.703125 C 2.710938 -0.171875 1.734375 0.0703125 0.671875 0.03125 C 0.367188 -0.0078125 0.0703125 -0.0976562 -0.21875 -0.234375 C -0.519531 -0.378906 -0.757812 -0.601562 -0.9375 -0.90625 C -1.0625 -1.269531 -1.035156 -1.582031 -0.859375 -1.84375 C -0.691406 -2.101562 -0.476562 -2.328125 -0.21875 -2.515625 C 1.070312 -3.523438 2.476562 -4.28125 4 -4.78125 C 4.082031 -4.78125 4.148438 -4.800781 4.203125 -4.84375 C 7.835938 -6.21875 11.539062 -7.257812 15.3125 -7.96875 C 24.007812 -9.882812 32.757812 -11.507812 41.5625 -12.84375 C 42.789062 -13.0625 44.050781 -13.28125 45.34375 -13.5 C 45.9375 -13.625 46.25 -13.976562 46.28125 -14.5625 C 46.363281 -15.707031 46.40625 -16.859375 46.40625 -18.015625 C 46.46875 -24.367188 46.5 -30.742188 46.5 -37.140625 C 46.5 -45.835938 46.5 -54.535156 46.5 -63.234375 C 46.5 -67.109375 46.539062 -70.976562 46.625 -74.84375 C 46.707031 -76.789062 47.722656 -77.601562 49.671875 -77.28125 C 50.703125 -77.164062 51.28125 -76.59375 51.40625 -75.5625 C 51.46875 -74.675781 51.5 -73.789062 51.5 -72.90625 C 51.5 -72.78125 51.5 -72.644531 51.5 -72.5 C 51.5 -58.738281 51.519531 -44.992188 51.5625 -31.265625 C 51.5625 -27.234375 51.5625 -23.195312 51.5625 -19.15625 C 51.5625 -18.9375 51.5625 -18.71875 51.5625 -18.5 C 51.5625 -18.050781 51.5625 -17.625 51.5625 -17.21875 C 51.5625 -15.96875 51.703125 -15.210938 51.984375 -14.953125 C 52.265625 -14.691406 53.007812 -14.671875 54.21875 -14.890625 C 56 -15.117188 57.753906 -15.34375 59.484375 -15.5625 C 62.046875 -15.925781 64.640625 -16.257812 67.265625 -16.5625 C 72.003906 -17.082031 76.78125 -17.566406 81.59375 -18.015625 C 83.445312 -18.191406 85.332031 -18.394531 87.25 -18.625 C 87.425781 -18.625 87.628906 -18.625 87.859375 -18.625 C 88.160156 -18.625 88.472656 -18.671875 88.796875 -18.765625 C 89.503906 -18.890625 89.875 -19.335938 89.90625 -20.109375 C 89.945312 -21.109375 89.96875 -22.125 89.96875 -23.15625 C 89.96875 -30.925781 89.96875 -38.675781 89.96875 -46.40625 C 89.96875 -48.96875 89.96875 -51.519531 89.96875 -54.0625 C 89.96875 -54.0625 89.988281 -54.0625 90.03125 -54.0625 C 90.03125 -56 90.03125 -57.945312 90.03125 -59.90625 C 90.03125 -68.257812 90.03125 -76.632812 90.03125 -85.03125 C 90.03125 -85.375 90.03125 -85.75 90.03125 -86.15625 C 90.09375 -86.6875 90.125 -87.203125 90.125 -87.703125 C 90.164062 -88.753906 90.601562 -89.425781 91.4375 -89.71875 C 92.28125 -90.007812 93.0625 -89.972656 93.78125 -89.609375 C 94.269531 -89.347656 94.554688 -88.953125 94.640625 -88.421875 C 94.734375 -87.398438 94.78125 -86.382812 94.78125 -85.375 C 94.820312 -67.914062 94.863281 -50.457031 94.90625 -33 C 94.90625 -30.070312 94.90625 -27.164062 94.90625 -24.28125 C 94.90625 -24.15625 94.90625 -24.023438 94.90625 -23.890625 C 94.90625 -23.484375 94.90625 -23.109375 94.90625 -22.765625 C 94.90625 -21.515625 94.953125 -20.617188 95.046875 -20.078125 C 95.140625 -19.546875 95.394531 -19.234375 95.8125 -19.140625 C 96.238281 -19.054688 96.894531 -19.046875 97.78125 -19.109375 C 98.082031 -19.109375 98.4375 -19.109375 98.84375 -19.109375 C 103.0625 -19.179688 107.257812 -19.257812 111.4375 -19.34375 C 113.914062 -19.445312 116.414062 -19.519531 118.9375 -19.5625 C 119.96875 -19.601562 120.988281 -19.582031 122 -19.5 Z M 122 -19.5 "/></g></g></g><g fill="#231f20" fill-opacity="1"><g transform="translate(146.463807, 195.34553)"><g><path d="M 34.25 -15.5625 C 33.695312 -13.863281 32.597656 -11.921875 30.953125 -9.734375 C 29.304688 -7.546875 27.25 -6.140625 24.78125 -5.515625 C 22.320312 -4.890625 20.195312 -4.972656 18.40625 -5.765625 C 16.613281 -6.566406 15.625 -8.703125 15.4375 -12.171875 C 13.394531 -8.210938 11.453125 -5.675781 9.609375 -4.5625 C 7.765625 -3.457031 5.84375 -3.035156 3.84375 -3.296875 C 1.582031 -3.660156 0.0546875 -4.535156 -0.734375 -5.921875 C -1.535156 -7.316406 -1.804688 -8.925781 -1.546875 -10.75 C -1.285156 -12.582031 -0.726562 -14.335938 0.125 -16.015625 C 0.789062 -17.265625 1.710938 -18.421875 2.890625 -19.484375 C 4.066406 -20.554688 5.300781 -21.398438 6.59375 -22.015625 C 8.1875 -22.816406 9.789062 -23.195312 11.40625 -23.15625 C 13.019531 -23.113281 14.75 -22.582031 16.59375 -21.5625 C 16.632812 -21.519531 16.65625 -21.554688 16.65625 -21.671875 C 16.65625 -21.859375 16.695312 -22.085938 16.78125 -22.359375 C 16.875 -22.628906 17.03125 -22.847656 17.25 -23.015625 C 17.863281 -23.453125 18.582031 -23.671875 19.40625 -23.671875 C 20.226562 -23.671875 20.863281 -23.257812 21.3125 -22.4375 C 21.394531 -21.363281 21.285156 -20 20.984375 -18.34375 C 20.316406 -14.707031 20.316406 -12.09375 20.984375 -10.5 C 21.648438 -8.90625 22.820312 -8.164062 24.5 -8.28125 C 26.1875 -8.394531 28.375 -10.0625 31.0625 -13.28125 C 33.75 -16.5 34.8125 -17.257812 34.25 -15.5625 Z M 4.453125 -7.03125 C 5.378906 -6.363281 6.441406 -6.453125 7.640625 -7.296875 C 8.847656 -8.140625 10.003906 -9.335938 11.109375 -10.890625 C 12.222656 -12.453125 13.15625 -14.007812 13.90625 -15.5625 C 14.664062 -17.113281 15.085938 -18.265625 15.171875 -19.015625 C 12.910156 -20.222656 10.972656 -20.425781 9.359375 -19.625 C 7.742188 -18.832031 6.457031 -17.53125 5.5 -15.71875 C 4.539062 -13.914062 3.96875 -12.160156 3.78125 -10.453125 C 3.601562 -8.753906 3.828125 -7.613281 4.453125 -7.03125 Z M 4.453125 -7.03125 "/></g></g></g><g fill="#231f20" fill-opacity="1"><g transform="translate(178.549605, 195.34553)"><g><path d="M 22.375 -15.828125 C 23.882812 -16.234375 24.492188 -16.210938 24.203125 -15.765625 C 23.910156 -15.328125 22.925781 -14.882812 21.25 -14.4375 C 20 -14.113281 18.921875 -13.953125 18.015625 -13.953125 C 17.109375 -13.953125 16.28125 -14.242188 15.53125 -14.828125 C 15.351562 -14.203125 15.171875 -13.597656 14.984375 -13.015625 C 14.617188 -11.828125 14.265625 -10.695312 13.921875 -9.625 C 13.484375 -8.070312 12.835938 -6.609375 11.984375 -5.234375 C 11.273438 -4.085938 10.34375 -3.3125 9.1875 -2.90625 C 8.03125 -2.5 6.894531 -2.507812 5.78125 -2.9375 C 4.675781 -3.363281 3.769531 -4.222656 3.0625 -5.515625 C 2.164062 -7.367188 1.566406 -9.316406 1.265625 -11.359375 C 0.597656 -14.378906 0.195312 -17.445312 0.0625 -20.5625 C 0.0195312 -21.257812 0.0390625 -21.941406 0.125 -22.609375 C 0.257812 -23.503906 0.8125 -23.953125 1.78125 -23.953125 C 2.507812 -23.910156 2.945312 -23.476562 3.09375 -22.65625 C 3.25 -21.84375 3.328125 -21.007812 3.328125 -20.15625 C 3.328125 -19.832031 3.347656 -19.5625 3.390625 -19.34375 C 3.390625 -19.039062 3.488281 -18.035156 3.6875 -16.328125 C 3.894531 -14.628906 4.195312 -12.8125 4.59375 -10.875 C 5 -8.9375 5.488281 -7.457031 6.0625 -6.4375 C 6.644531 -5.414062 7.328125 -5.441406 8.109375 -6.515625 C 8.878906 -7.660156 9.414062 -8.898438 9.71875 -10.234375 C 10.488281 -12.898438 11.207031 -15.5625 11.875 -18.21875 C 12.132812 -19.476562 12.632812 -20.609375 13.375 -21.609375 C 14.1875 -22.597656 15.238281 -22.84375 16.53125 -22.34375 C 16.832031 -22.257812 17.070312 -22.109375 17.25 -21.890625 C 17.4375 -21.671875 17.5 -21.425781 17.4375 -21.15625 C 17.394531 -20.832031 17.332031 -20.5 17.25 -20.15625 C 17.03125 -19.488281 16.863281 -18.820312 16.75 -18.15625 C 16.644531 -17.5 16.679688 -16.988281 16.859375 -16.625 C 17.160156 -16.175781 17.882812 -15.863281 19.03125 -15.6875 C 20.1875 -15.519531 21.300781 -15.566406 22.375 -15.828125 Z M 22.375 -15.828125 "/></g></g></g><g fill="#231f20" fill-opacity="1"><g transform="translate(200.979394, 195.34553)"><g><path d="M 29.1875 -14.625 C 29.625 -14.882812 30.054688 -15.082031 30.484375 -15.21875 C 30.910156 -15.363281 31.1875 -15.351562 31.3125 -15.1875 C 31.445312 -15.03125 31.269531 -14.671875 30.78125 -14.109375 C 29.269531 -12.367188 27.457031 -10.773438 25.34375 -9.328125 C 23.238281 -7.890625 21.078125 -6.675781 18.859375 -5.6875 C 17.117188 -4.90625 15.285156 -4.28125 13.359375 -3.8125 C 11.429688 -3.351562 9.523438 -3.253906 7.640625 -3.515625 C 5.753906 -3.773438 4.035156 -4.613281 2.484375 -6.03125 C 0.117188 -8.207031 -0.859375 -10.867188 -0.453125 -14.015625 C -0.109375 -16.515625 0.863281 -18.640625 2.46875 -20.390625 C 4.070312 -22.140625 6.09375 -23.328125 8.53125 -23.953125 C 10.570312 -24.390625 12.613281 -24.4375 14.65625 -24.09375 C 15.582031 -23.957031 16.429688 -23.644531 17.203125 -23.15625 C 17.898438 -22.613281 18.285156 -21.976562 18.359375 -21.25 C 18.429688 -20.519531 18.15625 -19.820312 17.53125 -19.15625 C 16.238281 -18.007812 14.742188 -17.328125 13.046875 -17.109375 C 11.148438 -16.785156 9.242188 -16.582031 7.328125 -16.5 C 6.398438 -16.5 5.75 -16.304688 5.375 -15.921875 C 5 -15.535156 4.78125 -14.878906 4.71875 -13.953125 C 4.414062 -11.429688 5.222656 -9.375 7.140625 -7.78125 C 8.335938 -6.832031 9.785156 -6.425781 11.484375 -6.5625 C 13.191406 -6.707031 15.003906 -7.164062 16.921875 -7.9375 C 18.835938 -8.71875 20.710938 -9.628906 22.546875 -10.671875 C 24.390625 -11.710938 26.046875 -12.695312 27.515625 -13.625 C 28.140625 -14.03125 28.695312 -14.363281 29.1875 -14.625 Z M 8.140625 -20.015625 C 8.140625 -19.972656 8.109375 -19.953125 8.046875 -19.953125 C 7.972656 -19.867188 7.867188 -19.769531 7.734375 -19.65625 C 7.597656 -19.550781 7.472656 -19.441406 7.359375 -19.328125 C 7.253906 -19.210938 7.203125 -19.140625 7.203125 -19.109375 C 7.242188 -18.960938 7.609375 -18.925781 8.296875 -19 C 8.984375 -19.070312 9.738281 -19.191406 10.5625 -19.359375 C 11.394531 -19.535156 12.085938 -19.769531 12.640625 -20.0625 C 13.191406 -20.351562 13.359375 -20.695312 13.140625 -21.09375 C 13.035156 -21.21875 12.90625 -21.328125 12.75 -21.421875 C 12.601562 -21.515625 12.441406 -21.578125 12.265625 -21.609375 C 11.453125 -21.609375 10.710938 -21.453125 10.046875 -21.140625 C 9.378906 -20.828125 8.742188 -20.453125 8.140625 -20.015625 Z M 8.140625 -20.015625 "/></g></g></g><g fill="#231f20" fill-opacity="1"><g transform="translate(230.280375, 195.34553)"><g><path d="M 25.03125 -11.65625 C 26.59375 -14.113281 27.519531 -15.675781 27.8125 -16.34375 C 28.101562 -17.007812 28.332031 -16.976562 28.5 -16.25 C 28.675781 -15.53125 28.175781 -13.894531 27 -11.34375 C 25.832031 -8.789062 24.378906 -6.820312 22.640625 -5.4375 C 20.910156 -4.050781 19.289062 -3.539062 17.78125 -3.90625 C 16.28125 -4.269531 15.207031 -5.3125 14.5625 -7.03125 C 13.914062 -8.757812 13.722656 -10.9375 13.984375 -13.5625 C 13.984375 -13.601562 14.003906 -13.710938 14.046875 -13.890625 C 14.085938 -14.335938 14.160156 -14.992188 14.265625 -15.859375 C 14.378906 -16.734375 14.460938 -17.632812 14.515625 -18.5625 C 14.566406 -19.488281 14.535156 -20.253906 14.421875 -20.859375 C 14.316406 -21.460938 14.039062 -21.675781 13.59375 -21.5 C 12.519531 -20.90625 11.472656 -19.753906 10.453125 -18.046875 C 9.441406 -16.347656 8.519531 -14.566406 7.6875 -12.703125 C 6.863281 -10.835938 6.28125 -9.328125 5.9375 -8.171875 C 5.789062 -7.804688 5.660156 -7.425781 5.546875 -7.03125 C 5.359375 -6.5 5.15625 -5.972656 4.9375 -5.453125 C 4.351562 -3.929688 3.332031 -3.34375 1.875 -3.6875 C 1.070312 -3.875 0.597656 -4.367188 0.453125 -5.171875 C 0.410156 -5.796875 0.390625 -6.394531 0.390625 -6.96875 C 0.390625 -7.332031 0.367188 -7.664062 0.328125 -7.96875 C 0.253906 -12.445312 0.144531 -16.957031 0 -21.5 C 0.0390625 -22.019531 0.269531 -22.378906 0.6875 -22.578125 C 1.113281 -22.785156 1.617188 -22.890625 2.203125 -22.890625 C 2.648438 -22.890625 3.070312 -22.765625 3.46875 -22.515625 C 3.863281 -22.273438 4.109375 -21.773438 4.203125 -21.015625 C 4.242188 -20.742188 4.265625 -20.476562 4.265625 -20.21875 C 4.304688 -20.082031 4.328125 -19.953125 4.328125 -19.828125 C 4.410156 -19.203125 4.453125 -18.664062 4.453125 -18.21875 C 4.453125 -17.550781 4.492188 -17.097656 4.578125 -16.859375 C 4.671875 -16.617188 4.863281 -16.628906 5.15625 -16.890625 C 5.445312 -17.148438 5.925781 -17.773438 6.59375 -18.765625 C 7.75 -20.546875 9.175781 -22.050781 10.875 -23.28125 C 12.425781 -24.394531 14.128906 -24.859375 15.984375 -24.671875 C 17.578125 -24.515625 18.644531 -23.675781 19.1875 -22.15625 C 19.414062 -21.394531 19.53125 -20.625 19.53125 -19.84375 C 19.53125 -19.0625 19.476562 -18.28125 19.375 -17.5 C 19.332031 -16.6875 19.269531 -15.859375 19.1875 -15.015625 C 19.132812 -14.753906 19.085938 -14.492188 19.046875 -14.234375 C 18.785156 -11.347656 18.875 -9.414062 19.3125 -8.4375 C 19.757812 -7.457031 20.4375 -7.132812 21.34375 -7.46875 C 22.25 -7.800781 23.476562 -9.195312 25.03125 -11.65625 Z M 25.03125 -11.65625 "/></g></g></g><g fill="#231f20" fill-opacity="1"><g transform="translate(137.06462, 216.491573)"><g><path d="M 1.421875 0 L 1.421875 -11.90625 L 8.890625 -11.90625 L 8.890625 -9.453125 L 4.125 -9.453125 L 4.125 -6.484375 L 8.453125 -6.484375 L 8.453125 -4.09375 L 4.125 -4.09375 L 4.125 0 Z M 1.421875 0 "/></g></g></g><g fill="#231f20" fill-opacity="1"><g transform="translate(154.85914, 216.491573)"><g><path d="M 7.078125 0.234375 C 5.835938 0.234375 4.738281 -0.0234375 3.78125 -0.546875 C 2.820312 -1.078125 2.070312 -1.804688 1.53125 -2.734375 C 1 -3.660156 0.734375 -4.734375 0.734375 -5.953125 C 0.734375 -7.160156 1 -8.226562 1.53125 -9.15625 C 2.070312 -10.09375 2.820312 -10.820312 3.78125 -11.34375 C 4.738281 -11.875 5.835938 -12.140625 7.078125 -12.140625 C 8.316406 -12.140625 9.410156 -11.875 10.359375 -11.34375 C 11.316406 -10.820312 12.066406 -10.09375 12.609375 -9.15625 C 13.160156 -8.226562 13.4375 -7.160156 13.4375 -5.953125 C 13.4375 -4.734375 13.160156 -3.660156 12.609375 -2.734375 C 12.066406 -1.804688 11.316406 -1.078125 10.359375 -0.546875 C 9.410156 -0.0234375 8.316406 0.234375 7.078125 0.234375 Z M 3.484375 -5.953125 C 3.484375 -5.234375 3.632812 -4.601562 3.9375 -4.0625 C 4.25 -3.519531 4.671875 -3.09375 5.203125 -2.78125 C 5.742188 -2.476562 6.367188 -2.328125 7.078125 -2.328125 C 7.785156 -2.328125 8.410156 -2.476562 8.953125 -2.78125 C 9.492188 -3.09375 9.910156 -3.519531 10.203125 -4.0625 C 10.503906 -4.601562 10.65625 -5.234375 10.65625 -5.953125 C 10.65625 -6.660156 10.503906 -7.285156 10.203125 -7.828125 C 9.910156 -8.378906 9.492188 -8.804688 8.953125 -9.109375 C 8.410156 -9.421875 7.785156 -9.578125 7.078125 -9.578125 C 6.367188 -9.578125 5.742188 -9.421875 5.203125 -9.109375 C 4.671875 -8.804688 4.25 -8.378906 3.9375 -7.828125 C 3.632812 -7.285156 3.484375 -6.660156 3.484375 -5.953125 Z M 3.484375 -5.953125 "/></g></g></g><g fill="#231f20" fill-opacity="1"><g transform="translate(177.173573, 216.491573)"><g><path d="M 1.421875 0 L 1.421875 -11.90625 L 6.515625 -11.90625 C 7.421875 -11.90625 8.207031 -11.738281 8.875 -11.40625 C 9.539062 -11.070312 10.054688 -10.597656 10.421875 -9.984375 C 10.785156 -9.378906 10.96875 -8.648438 10.96875 -7.796875 C 10.96875 -6.929688 10.769531 -6.179688 10.375 -5.546875 C 9.976562 -4.921875 9.421875 -4.445312 8.703125 -4.125 L 11.171875 0 L 8.046875 0 L 5.921875 -3.703125 L 4.125 -3.703125 L 4.125 0 Z M 4.09375 -5.984375 L 6.15625 -5.984375 C 6.820312 -5.984375 7.332031 -6.140625 7.6875 -6.453125 C 8.050781 -6.765625 8.234375 -7.207031 8.234375 -7.78125 C 8.234375 -8.363281 8.050781 -8.8125 7.6875 -9.125 C 7.332031 -9.4375 6.820312 -9.59375 6.15625 -9.59375 L 4.09375 -9.59375 Z M 4.09375 -5.984375 "/></g></g></g><g fill="#231f20" fill-opacity="1"><g transform="translate(197.296016, 216.491573)"><g/></g></g><g fill="#231f20" fill-opacity="1"><g transform="translate(209.449137, 216.491573)"><g><path d="M 8.78125 0 L 8.78125 -4.796875 L 4.125 -4.796875 L 4.125 0 L 1.421875 0 L 1.421875 -11.90625 L 4.125 -11.90625 L 4.125 -7.328125 L 8.78125 -7.328125 L 8.78125 -11.90625 L 11.484375 -11.90625 L 11.484375 0 Z M 8.78125 0 "/></g></g></g><g fill="#231f20" fill-opacity="1"><g transform="translate(230.523145, 216.491573)"><g><path d="M 1.421875 0 L 1.421875 -11.90625 L 9.25 -11.90625 L 9.25 -9.625 L 4.109375 -9.625 L 4.109375 -7.15625 L 8.78125 -7.15625 L 8.78125 -4.890625 L 4.109375 -4.890625 L 4.109375 -2.296875 L 9.4375 -2.296875 L 9.4375 0 Z M 1.421875 0 "/></g></g></g><g fill="#231f20" fill-opacity="1"><g transform="translate(248.980358, 216.491573)"><g><path d="M 1.421875 0 L 1.421875 -11.90625 L 6.515625 -11.90625 C 7.421875 -11.90625 8.207031 -11.738281 8.875 -11.40625 C 9.539062 -11.070312 10.054688 -10.597656 10.421875 -9.984375 C 10.785156 -9.378906 10.96875 -8.648438 10.96875 -7.796875 C 10.96875 -6.929688 10.769531 -6.179688 10.375 -5.546875 C 9.976562 -4.921875 9.421875 -4.445312 8.703125 -4.125 L 11.171875 0 L 8.046875 0 L 5.921875 -3.703125 L 4.125 -3.703125 L 4.125 0 Z M 4.09375 -5.984375 L 6.15625 -5.984375 C 6.820312 -5.984375 7.332031 -6.140625 7.6875 -6.453125 C 8.050781 -6.765625 8.234375 -7.207031 8.234375 -7.78125 C 8.234375 -8.363281 8.050781 -8.8125 7.6875 -9.125 C 7.332031 -9.4375 6.820312 -9.59375 6.15625 -9.59375 L 4.09375 -9.59375 Z M 4.09375 -5.984375 "/></g></g></g></svg>