<svg xmlns="http://www.w3.org/2000/svg" xmlns:xlink="http://www.w3.org/1999/xlink" zoomAndPan="magnify" preserveAspectRatio="xMidYMid meet" version="1.0" viewBox="17.47 53.58 327.5 257.61"><defs><g/><clipPath id="eee9e7549b"><path d="M 209 52 L 361 52 L 361 323 L 209 323 Z M 209 52 " clip-rule="nonzero"/></clipPath><clipPath id="901543671a"><path d="M 247.621094 52.976562 L 360.328125 70.109375 L 322.003906 322.210938 L 209.300781 305.078125 Z M 247.621094 52.976562 " clip-rule="nonzero"/></clipPath><clipPath id="8db389cc4d"><path d="M 38 1 L 136 1 L 136 260 L 38 260 Z M 38 1 " clip-rule="nonzero"/></clipPath><clipPath id="2ea5e15469"><path d="M 38.621094 0.976562 L 151.328125 18.109375 L 113.003906 270.210938 L 0.300781 253.078125 Z M 38.621094 0.976562 " clip-rule="nonzero"/></clipPath><clipPath id="e32c38c221"><path d="M 151.351562 18.113281 L 38.644531 0.980469 L 0.320312 253.082031 L 113.027344 270.214844 Z M 151.351562 18.113281 " clip-rule="nonzero"/></clipPath><clipPath id="9803c50d09"><path d="M 151.351562 18.113281 L 38.644531 0.980469 L 0.320312 253.082031 L 113.027344 270.214844 Z M 151.351562 18.113281 " clip-rule="nonzero"/></clipPath><clipPath id="5468df6f73"><rect x="0" width="152" y="0" height="271"/></clipPath></defs><g clip-path="url(#eee9e7549b)"><g clip-path="url(#901543671a)"><g transform="matrix(1, 0, 0, 1, 209, 52)"><g clip-path="url(#5468df6f73)"><g clip-path="url(#8db389cc4d)"><g clip-path="url(#2ea5e15469)"><g clip-path="url(#e32c38c221)"><g clip-path="url(#9803c50d09)"><path fill="#000000" d="M 129.203125 122.636719 C 126.21875 123.855469 123.09375 124.347656 119.882812 124.253906 C 118.636719 124.214844 117.390625 124.199219 116.152344 124.136719 C 115.316406 124.085938 114.585938 124.335938 113.957031 124.890625 C 113.21875 125.507812 112.449219 126.09375 111.707031 126.710938 C 111.429688 126.914062 111.195312 127.15625 110.996094 127.4375 C 110.214844 128.753906 109.398438 130.058594 108.722656 131.433594 C 107.789062 133.328125 107.34375 135.394531 107.019531 137.46875 C 106.621094 140.058594 105.976562 142.578125 105.078125 145.039062 C 104.351562 147.03125 103.847656 149.082031 103.863281 151.191406 C 103.882812 153.703125 103.597656 156.179688 103.273438 158.65625 C 102.933594 161.242188 102.515625 163.824219 102.097656 166.398438 C 101.820312 168.078125 101.542969 169.757812 101.152344 171.410156 C 100.449219 174.390625 99.710938 177.363281 98.890625 180.3125 C 97.992188 183.535156 97.121094 186.777344 95.988281 189.921875 C 94.96875 192.742188 93.601562 195.441406 92.398438 198.199219 C 92.296875 198.460938 92.214844 198.726562 92.144531 199 C 92.433594 198.875 92.664062 198.679688 92.832031 198.414062 C 95.585938 194.347656 98.808594 190.683594 102.328125 187.269531 C 104.664062 184.996094 107.125 182.859375 110.335938 181.949219 C 113.546875 181.039062 116.808594 180.222656 120.066406 179.453125 C 121.578125 179.101562 123.097656 179.058594 124.628906 179.316406 C 125.132812 179.40625 125.617188 179.558594 126.078125 179.773438 C 126.492188 179.960938 126.566406 180.371094 126.375 180.785156 C 126.128906 181.339844 125.71875 181.707031 125.136719 181.882812 C 123.789062 182.335938 122.808594 183.265625 121.925781 184.324219 C 121.304688 185.066406 120.675781 185.800781 120.085938 186.566406 C 118.363281 188.851562 116.320312 190.808594 113.960938 192.433594 C 111.226562 194.289062 108.449219 196.027344 105.289062 197.09375 C 103.679688 197.636719 102.128906 198.371094 100.535156 198.96875 C 96.4375 200.511719 92.894531 202.941406 89.578125 205.753906 C 88.605469 206.570312 87.863281 207.5625 87.347656 208.726562 C 86.722656 210.125 86.070312 211.511719 85.464844 212.921875 C 84.472656 215.226562 83.253906 217.402344 81.796875 219.445312 C 81.054688 220.496094 80.355469 221.582031 79.632812 222.652344 C 80.164062 222.636719 80.546875 222.445312 80.925781 222.25 C 85.664062 219.78125 90.414062 217.351562 95.476562 215.585938 C 98.859375 214.410156 102.25 213.289062 105.785156 212.640625 C 106.972656 212.425781 108.167969 212.277344 109.335938 212.578125 C 110.269531 212.816406 111.152344 213.175781 111.984375 213.664062 C 112.855469 214.191406 112.769531 215.039062 111.898438 215.550781 C 111.507812 215.78125 111.070312 215.925781 110.660156 216.125 C 108.671875 217.097656 106.65625 218.019531 104.699219 219.058594 C 101.4375 220.792969 98.199219 222.570312 94.988281 224.390625 C 90.027344 227.191406 84.878906 229.554688 79.445312 231.292969 C 78.214844 231.6875 77.054688 232.34375 75.9375 233.011719 C 74.769531 233.707031 73.710938 234.582031 72.570312 235.332031 C 70.382812 236.773438 68.269531 238.296875 66.75 240.492188 C 62.898438 244.277344 59.03125 248.042969 54.691406 251.277344 C 52.371094 253.011719 50.035156 254.722656 47.449219 256.0625 C 46.136719 256.738281 44.882812 257.523438 43.585938 258.230469 C 42.988281 258.554688 42.375 258.839844 41.742188 259.089844 C 41.300781 259.265625 40.835938 259.253906 40.503906 258.835938 C 40.222656 258.480469 40.324219 258.101562 40.472656 257.710938 C 40.816406 256.816406 41.453125 256.207031 42.234375 255.695312 C 43.375 254.945312 44.546875 254.246094 45.617188 253.402344 C 49.113281 250.675781 52.582031 247.917969 56.027344 245.128906 C 56.558594 244.703125 57.015625 244.207031 57.398438 243.636719 C 58.746094 241.589844 59.894531 239.441406 60.542969 237.058594 C 60.777344 236.183594 60.996094 235.304688 61.191406 234.417969 C 61.5 233.03125 61.859375 231.65625 62.054688 230.253906 C 62.445312 227.382812 62.726562 224.492188 63.082031 221.617188 C 63.382812 219.070312 63.945312 216.585938 64.769531 214.164062 C 66.882812 208.050781 69.570312 202.132812 71.105469 195.824219 C 71.226562 195.382812 71.414062 194.972656 71.675781 194.59375 C 72.144531 193.875 72.851562 193.859375 73.332031 194.542969 C 73.558594 194.871094 73.722656 195.226562 73.828125 195.613281 C 73.9375 196.113281 74.019531 196.617188 74.074219 197.125 C 74.539062 200.101562 74.675781 203.109375 74.730469 206.113281 C 74.757812 207.988281 74.675781 209.855469 74.484375 211.71875 C 74.335938 213.183594 73.980469 214.625 73.683594 216.070312 C 73.457031 217.179688 73.230469 218.292969 72.914062 219.382812 C 71.480469 224.363281 69.660156 229.1875 67.070312 233.699219 C 66.886719 234.015625 66.757812 234.367188 66.550781 234.820312 C 66.785156 234.738281 66.855469 234.734375 66.890625 234.699219 C 68.546875 232.832031 70.03125 230.808594 71.949219 229.175781 C 72.152344 228.976562 72.320312 228.753906 72.460938 228.503906 C 73.300781 227.222656 74.136719 225.9375 74.964844 224.644531 C 76.558594 222.15625 78.164062 219.675781 79.71875 217.164062 C 80.515625 215.917969 81.230469 214.632812 81.871094 213.300781 C 83.539062 209.695312 85.179688 206.070312 86.726562 202.410156 C 87.25 201.171875 87.453125 199.796875 87.789062 198.480469 C 87.835938 198.257812 87.847656 198.03125 87.816406 197.804688 C 87.507812 195.246094 86.859375 192.785156 85.664062 190.488281 C 85.035156 189.277344 84.355469 188.09375 83.738281 186.878906 C 82.816406 185.03125 81.601562 183.40625 80.089844 182.003906 C 77.375 179.488281 75.089844 176.566406 72.925781 173.574219 C 70.886719 170.761719 69.269531 167.691406 67.835938 164.527344 C 67.011719 162.703125 66.042969 160.972656 64.558594 159.585938 C 64.375 159.441406 64.234375 159.265625 64.136719 159.058594 C 64.039062 158.757812 63.9375 158.390625 64.027344 158.117188 C 64.15625 157.746094 64.566406 157.75 64.90625 157.871094 C 65.492188 158.082031 66.101562 158.261719 66.640625 158.570312 C 68.8125 159.800781 71.035156 160.96875 73.101562 162.359375 C 79.132812 166.414062 83.78125 171.671875 86.582031 178.453125 C 87.082031 179.660156 87.535156 180.886719 88.011719 182.105469 C 88.105469 182.34375 88.222656 182.578125 88.484375 183.175781 C 88.664062 181.714844 88.75 180.671875 88.632812 179.59375 C 88.085938 174.5 86.4375 169.765625 84.261719 165.152344 C 81.082031 158.429688 76.871094 152.519531 71.207031 147.679688 C 69.125 145.90625 67.207031 143.976562 65.453125 141.882812 C 64.386719 140.605469 63.394531 139.304688 62.789062 137.75 C 61.632812 134.789062 60.46875 131.828125 59.378906 128.839844 C 58.914062 127.566406 58.617188 126.222656 58.269531 124.90625 C 57.878906 123.429688 58 122.003906 58.902344 120.421875 C 58.984375 120.609375 59.050781 120.796875 59.101562 120.996094 C 59.382812 123.101562 60.710938 124.542969 62.136719 125.976562 C 65.742188 129.59375 69.421875 133.160156 72.082031 137.589844 C 72.179688 137.734375 72.28125 137.867188 72.390625 138 C 73.628906 139.574219 74.632812 141.28125 75.40625 143.128906 C 76.359375 145.4375 77.25 147.773438 78.1875 150.089844 C 78.886719 151.828125 79.621094 153.546875 80.921875 154.964844 C 81.375 155.457031 81.695312 156.085938 82.007812 156.683594 C 82.917969 158.390625 83.792969 160.109375 84.679688 161.824219 C 84.902344 162.21875 85.097656 162.628906 85.261719 163.054688 C 86.246094 166.019531 87.828125 168.757812 88.578125 171.816406 C 88.644531 171.972656 88.734375 172.113281 88.839844 172.246094 C 88.886719 172.164062 88.9375 172.109375 88.933594 172.0625 C 88.507812 168.285156 88.132812 164.503906 87.632812 160.734375 C 87.136719 157.074219 86.738281 153.410156 86.96875 149.710938 C 87.085938 147.898438 87.269531 146.078125 87.550781 144.285156 C 87.964844 141.566406 88.820312 138.996094 90.109375 136.566406 C 90.292969 136.21875 90.492188 135.839844 90.785156 135.601562 C 91.007812 135.417969 91.4375 135.300781 91.691406 135.390625 C 92.003906 135.535156 92.191406 135.773438 92.257812 136.113281 C 92.269531 136.851562 92.214844 137.585938 92.09375 138.316406 C 91.703125 140.980469 91.808594 143.648438 92.109375 146.300781 C 92.589844 150.527344 93.21875 154.726562 93.101562 159.011719 C 93.027344 161.875 92.84375 164.664062 91.800781 167.363281 C 91.5 168.15625 91.289062 168.976562 91.164062 169.816406 C 90.402344 174.769531 90.265625 179.761719 90.242188 184.757812 C 90.230469 188.335938 90.222656 191.910156 89.742188 195.460938 C 89.742188 195.691406 89.757812 195.925781 89.789062 196.152344 C 91.019531 193.683594 92.164062 191.472656 92.941406 189.109375 C 94.058594 185.714844 95.132812 182.300781 96.109375 178.863281 C 96.980469 175.8125 97.792969 172.734375 98.449219 169.632812 C 99.023438 166.917969 99.367188 164.148438 99.796875 161.402344 C 100.125 159.328125 100.65625 157.257812 100.6875 155.179688 C 100.730469 152.378906 101.160156 149.636719 101.378906 146.863281 C 101.40625 146.695312 101.425781 146.523438 101.425781 146.355469 C 101.378906 145.683594 101.421875 144.96875 101.210938 144.347656 C 99.820312 140.265625 98.667969 136.089844 96.582031 132.273438 C 95.929688 131.074219 95.261719 129.914062 94.265625 128.9375 C 92.722656 127.429688 91.292969 125.796875 89.773438 124.277344 C 88.804688 123.316406 87.789062 122.410156 86.71875 121.5625 C 85.03125 120.214844 83.363281 118.855469 81.890625 117.261719 C 80.546875 115.796875 79.070312 114.453125 77.746094 112.96875 C 76.609375 111.699219 75.558594 110.363281 74.585938 108.964844 C 72.316406 105.671875 71.289062 101.898438 70.664062 97.996094 C 70.441406 96.59375 70.238281 95.191406 69.617188 93.890625 C 69.097656 92.800781 69.28125 91.664062 69.394531 90.535156 C 69.445312 90.023438 69.757812 89.765625 70.15625 89.800781 C 70.558594 89.835938 70.765625 90.082031 70.835938 90.449219 C 70.976562 91.175781 71.175781 91.894531 71.222656 92.628906 C 71.347656 94.492188 72.363281 95.804688 73.769531 96.863281 C 74.949219 97.753906 76.164062 98.589844 77.335938 99.488281 C 82.171875 103.191406 86.773438 107.136719 90.777344 111.761719 C 92.457031 113.699219 94.042969 115.691406 95.386719 117.875 C 97.996094 122.125 99.691406 126.757812 101.070312 131.523438 C 101.152344 131.808594 101.285156 132.085938 101.390625 132.363281 C 101.625 130.507812 101.648438 128.699219 101.640625 126.890625 C 101.65625 125.871094 101.617188 124.851562 101.515625 123.835938 C 101.175781 120.960938 100.726562 118.101562 100.40625 115.226562 C 100.140625 112.851562 99.835938 110.496094 99.347656 108.15625 C 98.980469 106.382812 98.75 104.578125 98.539062 102.78125 C 98.246094 100.234375 97.863281 97.722656 97.035156 95.28125 C 96.777344 94.527344 96.476562 93.761719 96.398438 92.984375 C 96.140625 90.414062 94.898438 88.425781 93.066406 86.679688 C 91.992188 85.65625 90.925781 84.675781 89.632812 83.917969 C 88.453125 83.234375 87.324219 82.476562 86.246094 81.640625 C 83.429688 79.441406 80.644531 77.1875 77.859375 74.9375 C 75.734375 73.222656 73.753906 71.359375 72.070312 69.1875 C 69.640625 66.039062 67.179688 62.914062 64.792969 59.734375 C 62.988281 57.328125 61.269531 54.855469 59.523438 52.402344 C 59.261719 52.03125 59.050781 51.632812 58.890625 51.207031 C 58.707031 50.714844 59.070312 50.324219 59.605469 50.335938 C 60.113281 50.34375 60.449219 50.613281 60.746094 50.980469 C 61.644531 52.082031 62.5625 53.167969 63.429688 54.289062 C 65.414062 56.855469 67.429688 59.402344 69.878906 61.535156 C 73.359375 64.566406 77.089844 67.25 81.070312 69.578125 C 84.613281 71.660156 87.902344 74.070312 90.726562 77.085938 C 91.257812 77.652344 91.816406 78.1875 92.410156 78.785156 C 92.441406 78.558594 92.511719 78.441406 92.472656 78.367188 C 91.082031 75.191406 89.6875 72.015625 88.277344 68.855469 C 87.558594 67.246094 86.757812 65.679688 86.039062 64.070312 C 85.019531 61.789062 84.050781 59.484375 83.050781 57.195312 C 82.414062 55.738281 81.734375 54.292969 81.121094 52.832031 C 80.75 51.859375 80.179688 51.023438 79.410156 50.316406 C 76.789062 47.96875 74.191406 45.589844 71.597656 43.214844 C 70.542969 42.253906 69.539062 41.25 68.484375 40.304688 C 66.65625 38.664062 64.667969 37.246094 62.394531 36.285156 C 60.460938 35.472656 58.503906 34.714844 56.539062 33.972656 C 50.363281 31.636719 45.765625 27.554688 42.828125 21.625 C 41.707031 19.363281 40.949219 17.003906 40.847656 14.453125 C 40.8125 12.921875 40.6875 11.398438 40.472656 9.882812 C 40.175781 7.976562 39.714844 6.097656 39.308594 4.210938 C 39.210938 3.886719 39.09375 3.570312 38.953125 3.265625 C 38.78125 2.796875 38.449219 2.324219 38.832031 1.828125 C 39.132812 1.441406 39.78125 1.519531 40.542969 2.023438 C 40.785156 2.175781 40.996094 2.371094 41.226562 2.542969 C 42.207031 3.226562 43.144531 3.980469 44.171875 4.570312 C 46.296875 5.8125 48.21875 7.3125 49.9375 9.070312 C 54.425781 13.558594 59.035156 17.945312 63.203125 22.765625 C 66.363281 26.425781 69.410156 30.167969 72.164062 34.140625 C 76.535156 40.445312 80.480469 47.019531 84.300781 53.679688 C 87.074219 58.523438 89.394531 63.578125 91.511719 68.738281 C 91.746094 69.300781 92.023438 69.847656 92.28125 70.402344 C 92.46875 70.144531 92.53125 69.855469 92.464844 69.542969 C 91.828125 66.601562 91.164062 63.667969 90.523438 60.726562 C 89.867188 57.703125 88.863281 54.828125 87.191406 52.199219 C 86.738281 51.46875 86.367188 50.703125 86.074219 49.894531 C 84.664062 46.160156 82.789062 42.652344 80.867188 39.167969 C 79.796875 37.222656 78.855469 35.214844 78.230469 33.078125 C 77.46875 30.460938 76.78125 27.824219 76.050781 25.195312 C 75.007812 21.421875 73.984375 17.636719 72.90625 13.871094 C 72.402344 12.125 71.769531 10.417969 71.230469 8.683594 C 71.058594 8.140625 70.960938 7.585938 70.941406 7.015625 C 70.921875 6.414062 71.578125 5.992188 72.148438 6.214844 C 72.472656 6.335938 72.753906 6.523438 72.996094 6.769531 C 73.683594 7.523438 74.410156 8.257812 74.964844 9.105469 C 75.925781 10.578125 76.816406 12.105469 77.648438 13.65625 C 82.160156 22.054688 85.523438 30.917969 88.039062 40.09375 C 89.613281 45.84375 90.941406 51.660156 92.414062 57.4375 C 93.964844 63.503906 95.09375 69.632812 95.558594 75.882812 C 95.675781 77.457031 96.003906 79.019531 96.265625 80.585938 C 96.3125 80.871094 96.503906 81.128906 96.628906 81.402344 C 96.859375 80.613281 96.894531 79.882812 96.921875 79.148438 C 96.953125 78.300781 96.921875 77.445312 97.019531 76.609375 C 97.109375 75.882812 97.425781 75.183594 97.488281 74.457031 C 97.78125 71.097656 99.085938 68.09375 100.617188 65.15625 C 100.964844 64.441406 101.269531 63.710938 101.535156 62.960938 C 102.351562 60.847656 103.058594 58.679688 103.980469 56.613281 C 105.496094 53.214844 107.484375 50.066406 110.144531 47.472656 C 113.757812 43.945312 118.257812 41.894531 123.015625 40.386719 C 123.457031 40.253906 123.90625 40.210938 124.363281 40.253906 C 125.339844 40.335938 125.734375 41 125.429688 41.929688 C 125.171875 42.710938 124.679688 43.324219 124.082031 43.871094 C 123.128906 44.761719 122.195312 45.675781 121.203125 46.527344 C 117.832031 49.421875 114.671875 52.511719 112.027344 56.105469 C 111.363281 56.960938 110.628906 57.746094 109.820312 58.460938 C 108.363281 59.808594 106.867188 61.121094 105.347656 62.402344 C 104.15625 63.40625 103.234375 64.597656 102.433594 65.929688 C 100.875 68.523438 100.3125 71.433594 99.828125 74.328125 C 99.242188 77.695312 98.9375 81.085938 98.914062 84.5 C 98.914062 86.226562 99 87.882812 99.496094 89.542969 C 99.769531 90.457031 100.03125 91.390625 99.75 92.390625 C 99.664062 92.785156 99.695312 93.171875 99.851562 93.546875 C 100.390625 94.9375 100.515625 96.414062 100.824219 97.851562 C 102.84375 107.304688 104.300781 116.832031 104.4375 126.519531 C 104.496094 130.601562 104.457031 134.679688 104.46875 138.761719 C 104.46875 138.953125 104.503906 139.144531 104.53125 139.335938 C 104.910156 138.753906 105.179688 138.128906 105.34375 137.457031 C 105.449219 137.078125 105.464844 136.671875 105.566406 136.289062 C 105.996094 134.585938 106.214844 132.828125 106.925781 131.203125 C 107.496094 129.902344 108.0625 128.605469 108.636719 127.308594 C 108.890625 126.75 109.117188 126.140625 109.449219 125.632812 C 111.246094 122.871094 112.90625 120.003906 114.945312 117.429688 C 116.984375 114.859375 118.457031 112.003906 119.90625 109.113281 C 120.550781 107.832031 120.996094 106.5 120.730469 105.007812 C 120.644531 104.578125 120.773438 104.105469 120.820312 103.65625 C 121 101.957031 121.207031 100.261719 121.363281 98.566406 C 121.460938 97.492188 121.511719 96.410156 121.546875 95.335938 C 121.605469 93.351562 121.597656 91.367188 121.699219 89.386719 C 121.773438 87.910156 121.972656 86.441406 122.117188 84.972656 C 122.617188 79.882812 124.714844 75.492188 127.96875 71.609375 C 128.371094 71.132812 128.839844 70.664062 129.066406 70.101562 C 129.765625 68.34375 131.070312 66.960938 131.882812 65.277344 C 132.082031 64.859375 132.753906 64.84375 133.023438 65.261719 C 133.269531 65.644531 133.457031 66.054688 133.585938 66.492188 C 134.289062 68.90625 134.707031 71.371094 134.457031 73.890625 C 134.269531 75.800781 134.175781 77.714844 133.917969 79.628906 C 133.476562 83.128906 132.726562 86.558594 131.667969 89.921875 C 130.285156 94.253906 128.699219 98.507812 126.351562 102.4375 C 124.628906 105.3125 122.925781 108.199219 121.273438 111.117188 C 119.675781 113.9375 118.058594 116.738281 116.136719 119.351562 C 116.0625 119.453125 116.082031 119.621094 116.035156 119.882812 C 116.605469 119.574219 117.058594 119.339844 117.503906 119.09375 C 120.019531 117.660156 122.714844 116.871094 125.613281 116.804688 C 126.859375 116.78125 128.105469 116.847656 129.355469 116.855469 C 131.804688 116.875 134.054688 117.472656 135.976562 119.0625 L 135.902344 119.742188 C 135.613281 119.925781 135.347656 120.195312 135.035156 120.269531 C 132.972656 120.769531 131.144531 121.84375 129.203125 122.636719 Z M 96.28125 198.523438 C 98.265625 197.691406 100.242188 196.832031 102.230469 196.007812 C 103.066406 195.660156 103.917969 195.335938 104.773438 195.058594 C 108.730469 193.800781 112.148438 191.589844 115.347656 189.007812 C 116.226562 188.292969 117.039062 187.507812 117.78125 186.648438 C 119.308594 184.902344 120.769531 183.101562 122.359375 181.203125 C 121.996094 181.164062 121.691406 181.078125 121.402344 181.109375 C 120.667969 181.179688 119.9375 181.292969 119.21875 181.453125 C 116.40625 182.125 113.597656 182.804688 110.804688 183.53125 C 109.085938 183.976562 107.539062 184.835938 106.152344 185.941406 C 102.71875 188.671875 99.707031 191.824219 96.910156 195.195312 C 96.742188 195.445312 96.589844 195.699219 96.449219 195.964844 C 96.832031 195.914062 96.960938 195.9375 97.039062 195.878906 C 97.910156 195.246094 98.761719 194.589844 99.636719 193.960938 C 101.433594 192.671875 103.199219 191.347656 105.050781 190.136719 C 106.085938 189.464844 107.265625 189.003906 108.386719 188.464844 C 108.515625 188.40625 108.699219 188.460938 109.070312 188.464844 C 108.851562 188.730469 108.765625 188.9375 108.617188 188.996094 C 105.921875 190.144531 103.652344 191.9375 101.40625 193.753906 C 99.816406 195.039062 98.21875 196.316406 96.632812 197.601562 C 96.199219 197.953125 95.785156 198.332031 95.320312 198.738281 C 95.800781 199.023438 96.011719 198.640625 96.28125 198.527344 Z M 70.949219 220.75 C 71.351562 219.335938 71.574219 217.871094 71.863281 216.425781 C 72.109375 215.207031 72.375 213.988281 72.550781 212.753906 C 72.953125 209.878906 72.800781 206.984375 72.679688 204.097656 C 72.636719 203.078125 72.539062 202.0625 72.457031 201.046875 C 72.398438 200.734375 72.328125 200.429688 72.238281 200.125 C 71.503906 202.246094 70.890625 204.050781 70.246094 205.84375 C 69.347656 208.351562 68.40625 210.847656 67.511719 213.359375 C 66.960938 214.90625 66.621094 216.511719 66.25 218.121094 C 65.617188 220.851562 65.519531 223.632812 65.167969 226.402344 C 66.433594 222.480469 67.546875 218.503906 69.265625 214.363281 C 69.449219 214.90625 69.613281 215.140625 69.582031 215.351562 C 69.464844 216.191406 69.265625 217.015625 69.136719 217.855469 C 68.683594 220.890625 67.886719 223.847656 67.023438 226.78125 C 66.300781 229.226562 65.46875 231.640625 64.621094 234.046875 C 64.078125 235.59375 63.414062 237.09375 62.679688 238.9375 C 63.210938 238.347656 63.664062 237.699219 64.035156 237 C 67.027344 231.875 69.332031 226.460938 70.949219 220.75 Z M 77.390625 226.742188 C 77.09375 226.957031 76.894531 227.296875 76.421875 227.847656 C 77.492188 227.691406 78.054688 227.21875 78.675781 226.898438 C 79.296875 226.582031 79.882812 226.265625 80.496094 225.976562 C 81.160156 225.652344 81.832031 225.355469 82.503906 225.046875 C 83.121094 224.761719 83.738281 224.484375 84.363281 224.195312 C 85.035156 223.894531 85.710938 223.597656 86.382812 223.304688 C 87.007812 223.03125 87.636719 222.769531 88.261719 222.5 C 88.9375 222.207031 89.609375 221.902344 90.289062 221.605469 C 90.914062 221.335938 91.535156 221.042969 92.175781 220.824219 C 92.839844 220.59375 93.46875 220.210938 94.285156 220.351562 C 93.996094 220.5625 93.691406 220.753906 93.378906 220.929688 C 89.230469 222.90625 85.054688 224.820312 80.9375 226.867188 C 79.011719 227.820312 77.203125 229.015625 75.34375 230.109375 C 74.90625 230.363281 74.503906 230.65625 74.445312 231.417969 C 76.488281 229.855469 78.75 229.15625 81.023438 228.449219 C 85.273438 227.128906 89.226562 225.152344 93.148438 223.085938 C 97.617188 220.734375 102.09375 218.394531 106.578125 216.074219 C 107.371094 215.660156 108.199219 215.296875 109.265625 214.777344 C 108.203125 214.488281 107.128906 214.4375 106.042969 214.625 C 103.289062 215.066406 100.632812 215.878906 97.992188 216.753906 C 91.832031 218.796875 85.992188 221.574219 80.328125 224.726562 C 79.292969 225.296875 78.347656 226.039062 77.386719 226.742188 Z M 75.589844 148.617188 C 74.265625 145.414062 73.101562 142.136719 70.96875 139.339844 C 70.898438 139.25 70.835938 139.15625 70.78125 139.058594 C 68.414062 134.734375 65.035156 131.183594 61.929688 127.421875 C 61.496094 126.90625 60.984375 126.449219 60.292969 125.738281 C 60.375 126.238281 60.386719 126.472656 60.449219 126.691406 C 61.589844 130.445312 62.972656 134.109375 64.597656 137.679688 C 64.875 138.304688 65.222656 138.890625 65.640625 139.433594 C 67.46875 141.839844 69.527344 144.03125 71.8125 146.007812 C 71.992188 146.136719 72.183594 146.253906 72.378906 146.363281 C 70.242188 142.820312 67.585938 139.84375 65.875 136.269531 C 66.335938 135.964844 66.527344 136.273438 66.683594 136.449219 C 67.320312 137.175781 67.980469 137.886719 68.519531 138.679688 C 70.519531 141.644531 72.476562 144.644531 74.453125 147.625 C 74.761719 148.085938 75.113281 148.519531 75.488281 149.027344 C 75.546875 148.8125 75.621094 148.691406 75.589844 148.617188 Z M 89.976562 152.859375 C 90.820312 153.914062 90.820312 153.914062 91.21875 161.003906 C 91.46875 158.242188 91.492188 155.476562 91.292969 152.710938 C 91.117188 150.453125 90.828125 148.207031 90.65625 145.949219 C 90.550781 144.597656 90.578125 143.234375 90.542969 141.878906 C 90.519531 141.039062 90.496094 140.203125 90.472656 139.152344 C 90.238281 139.652344 90.070312 139.945312 89.957031 140.257812 C 88.828125 143.386719 88.351562 146.636719 88.210938 149.925781 C 88.042969 153.835938 88.457031 157.726562 89.046875 161.59375 C 89.234375 162.824219 89.402344 164.050781 89.628906 165.597656 C 90.335938 161.210938 90.25 157.125 89.976562 152.859375 Z M 87.632812 184.203125 C 86.625 180.746094 85.257812 177.4375 83.335938 174.390625 C 80.660156 170.152344 77.128906 166.722656 73 163.914062 C 71.734375 163.054688 70.390625 162.316406 69.058594 161.542969 C 68.808594 161.398438 68.484375 161.386719 68.144531 161.304688 C 68.152344 161.550781 68.121094 161.675781 68.164062 161.757812 C 70.21875 166.011719 72.417969 170.1875 75.578125 173.753906 C 77.796875 176.261719 79.910156 178.859375 82.40625 181.109375 C 83.316406 181.929688 84.023438 183.007812 84.699219 184.042969 C 85.34375 185.03125 85.828125 186.125 86.480469 187.132812 C 86.46875 186.394531 86.210938 185.722656 85.890625 185.089844 C 84.644531 182.667969 83.40625 180.238281 82.109375 177.839844 C 81.082031 175.941406 79.953125 174.101562 78.917969 172.207031 C 78.46875 171.347656 78.070312 170.472656 77.714844 169.574219 C 77.621094 169.355469 77.667969 169.078125 77.640625 168.640625 C 77.945312 168.898438 78.105469 168.980469 78.1875 169.109375 C 81.238281 173.84375 83.996094 178.734375 86.210938 183.925781 C 86.859375 185.507812 87.339844 187.136719 87.652344 188.816406 C 87.726562 189.191406 87.828125 189.558594 87.917969 189.929688 C 88.378906 187.964844 88.175781 186.050781 87.632812 184.203125 Z M 74.714844 42.5625 C 74.429688 42.140625 74.132812 41.722656 73.820312 41.320312 C 71.46875 38.316406 68.808594 35.605469 66.09375 32.941406 C 63.335938 30.242188 60.546875 27.570312 57.769531 24.890625 C 57.332031 24.464844 56.859375 24.074219 56.554688 23.3125 C 57.554688 23.4375 58.027344 24.136719 58.636719 24.570312 C 59.335938 25.058594 59.976562 25.621094 60.636719 26.164062 C 61.246094 26.671875 61.851562 27.1875 62.441406 27.71875 C 63.03125 28.25 63.601562 28.808594 64.171875 29.363281 C 64.742188 29.914062 65.308594 30.472656 65.867188 31.03125 C 66.476562 31.625 67.066406 32.242188 67.695312 32.808594 C 68.261719 33.324219 68.691406 34.011719 69.417969 34.375 C 69.476562 34.242188 69.527344 34.175781 69.511719 34.15625 C 68.742188 33.105469 67.996094 32.035156 67.195312 31.007812 C 63.089844 25.773438 58.660156 20.832031 53.898438 16.1875 C 51.867188 14.203125 49.871094 12.1875 47.867188 10.175781 C 46.007812 8.308594 43.847656 6.859375 41.445312 5.445312 C 41.449219 5.804688 41.394531 6.066406 41.457031 6.300781 C 42.140625 8.949219 42.511719 11.640625 42.566406 14.375 C 42.601562 16.03125 43.097656 17.625 43.800781 19.132812 C 46.507812 24.9375 50.707031 29.1875 56.746094 31.519531 C 58.175781 32.070312 59.597656 32.636719 61.035156 33.164062 C 65.113281 34.667969 68.546875 37.117188 71.566406 40.203125 C 72.824219 41.523438 74.160156 42.753906 75.574219 43.90625 C 75.289062 43.453125 75.011719 43.003906 74.714844 42.5625 Z M 86.644531 44.886719 C 86.085938 42.800781 85.460938 40.742188 84.433594 38.820312 C 84.046875 38.058594 83.738281 37.269531 83.515625 36.445312 C 82.945312 34.476562 82.292969 32.546875 81.371094 30.714844 C 81.339844 30.601562 81.320312 30.488281 81.320312 30.371094 C 81.714844 30.152344 81.8125 30.515625 81.925781 30.71875 C 82.363281 31.511719 82.847656 32.292969 83.164062 33.136719 C 84.085938 35.582031 84.96875 38.039062 86.359375 40.273438 C 86.6875 40.792969 86.875 41.402344 87.183594 42.097656 C 87.046875 40.03125 84.355469 31.816406 81.445312 24.824219 C 79.113281 19.214844 76.480469 13.757812 73.050781 8.730469 L 72.722656 8.914062 C 72.996094 9.769531 73.269531 10.625 73.53125 11.484375 C 74.59375 14.902344 75.671875 18.3125 76.707031 21.734375 C 77.503906 24.394531 78.214844 27.085938 79.027344 29.742188 C 79.949219 32.800781 81.199219 35.714844 82.78125 38.488281 C 84.140625 40.847656 85.394531 43.261719 86.832031 45.898438 C 86.738281 45.402344 86.710938 45.140625 86.644531 44.886719 Z M 108.894531 53.152344 C 109.855469 51.761719 111.003906 50.492188 112.105469 49.199219 C 112.375 48.882812 112.792969 48.703125 113.335938 48.316406 C 113.355469 49.191406 112.6875 49.28125 112.480469 49.6875 C 112.25 50.136719 111.902344 50.527344 111.601562 50.9375 C 111.296875 51.347656 110.96875 51.742188 110.664062 52.148438 C 110.398438 52.515625 110.160156 52.902344 109.910156 53.28125 C 109.636719 53.710938 109.359375 54.140625 109.09375 54.578125 C 108.828125 55.015625 108.554688 55.445312 108.332031 55.902344 C 108.109375 56.351562 107.957031 56.820312 107.875 57.316406 C 109.066406 56.515625 110.078125 55.53125 110.910156 54.359375 C 113.316406 51.101562 116.136719 48.25 119.167969 45.570312 C 119.84375 44.972656 120.472656 44.324219 121.125 43.695312 C 117.644531 44.738281 114.425781 46.253906 111.679688 48.628906 C 111.074219 49.144531 110.519531 49.703125 110.007812 50.3125 C 107.628906 53.160156 105.703125 56.292969 104.230469 59.703125 C 104.164062 59.855469 104.109375 60.015625 104.066406 60.179688 C 104.054688 60.292969 104.054688 60.40625 104.070312 60.519531 C 105.683594 58.058594 107.222656 55.5625 108.894531 53.152344 Z M 92.917969 81.285156 C 90.074219 78.015625 86.945312 75.046875 83.222656 72.785156 C 79.199219 70.339844 75.089844 68.039062 71.378906 65.101562 C 71.003906 65.496094 71.359375 65.671875 71.488281 65.855469 C 74.21875 69.683594 77.6875 72.769531 81.40625 75.609375 C 83.210938 76.988281 84.933594 78.472656 86.707031 79.890625 C 87.886719 80.835938 89.042969 81.820312 90.808594 82.566406 C 89.011719 80.441406 87.058594 78.945312 85.632812 76.632812 C 86.105469 76.734375 86.390625 76.710938 86.546875 76.84375 C 87.539062 77.683594 88.558594 78.5 89.46875 79.429688 C 91.175781 81.15625 92.816406 82.953125 94.605469 84.847656 C 94.53125 83.292969 93.753906 82.253906 92.914062 81.285156 Z M 98.898438 128.761719 C 97.460938 124.738281 95.804688 120.816406 93.300781 117.320312 C 92.277344 115.894531 91.210938 114.484375 90.058594 113.160156 C 86.429688 108.988281 82.308594 105.339844 77.980469 101.925781 C 76.203125 100.527344 74.316406 99.269531 72.296875 97.816406 C 72.316406 98.253906 72.304688 98.503906 72.34375 98.746094 C 73.1875 103.980469 75.582031 108.382812 79.363281 112.070312 C 80.378906 113.058594 81.332031 114.113281 82.3125 115.136719 C 84.046875 116.9375 85.832031 118.683594 87.859375 120.164062 C 89.703125 121.515625 91.195312 123.226562 92.738281 124.898438 C 94.085938 126.351562 95.457031 127.785156 96.980469 129.402344 C 96.847656 128.914062 96.808594 128.570312 96.664062 128.273438 C 95.117188 125.042969 93.402344 121.90625 91.355469 118.960938 C 90.246094 117.378906 89.109375 115.824219 87.992188 114.246094 C 87.859375 114.027344 87.738281 113.796875 87.632812 113.554688 C 88.0625 113.273438 88.265625 113.539062 88.4375 113.734375 C 90.984375 116.570312 93.34375 119.535156 95.171875 122.914062 C 97.335938 126.921875 99.179688 131.0625 100.496094 135.433594 C 100.542969 135.535156 100.601562 135.632812 100.671875 135.722656 C 100.417969 133.269531 99.691406 131.003906 98.894531 128.761719 Z M 131.359375 85.136719 C 131.953125 82.996094 132.078125 80.769531 132.5 78.605469 C 132.851562 76.804688 132.785156 75.003906 133 73.210938 C 133.160156 71.859375 132.976562 70.503906 132.640625 68.890625 C 131.757812 72.757812 131.007812 76.371094 130.339844 80.007812 C 129.671875 83.644531 130.074219 87.335938 129.71875 91.007812 C 130.265625 89.054688 130.816406 87.097656 131.359375 85.136719 Z M 123.847656 101.78125 C 124.320312 100.871094 124.703125 99.929688 124.996094 98.953125 C 125.460938 97.371094 126.011719 95.824219 126.644531 94.304688 C 127.09375 93.257812 127.402344 92.171875 127.566406 91.042969 C 127.796875 89.304688 128.011719 87.566406 127.984375 85.789062 C 127.957031 84.28125 128.316406 82.75 128.574219 81.246094 C 128.816406 79.847656 129.140625 78.464844 129.457031 77.085938 C 129.835938 75.425781 130.257812 73.78125 130.632812 72.121094 C 130.792969 71.398438 130.878906 70.667969 130.890625 69.929688 C 129.511719 72.492188 127.273438 74.425781 126.007812 77.070312 C 124.792969 79.605469 123.769531 82.136719 123.585938 84.988281 C 123.417969 87.597656 122.925781 90.191406 122.863281 92.796875 C 122.785156 96.101562 122.425781 99.367188 122.117188 102.644531 C 122.066406 103.199219 122.183594 103.769531 122.222656 104.335938 C 122.777344 103.472656 123.390625 102.664062 123.847656 101.78125 Z M 133.0625 119.183594 C 132.199219 118.5625 131.230469 118.234375 130.164062 118.207031 C 127.957031 118.171875 125.75 117.859375 123.539062 118.160156 C 121.617188 118.425781 119.773438 118.910156 118.109375 120.066406 C 119.347656 119.917969 120.582031 119.679688 121.824219 119.648438 C 123.085938 119.617188 124.382812 119.34375 125.660156 119.742188 C 125.53125 120.445312 125.007812 120.40625 124.585938 120.480469 C 123.523438 120.652344 122.445312 120.753906 121.390625 120.941406 C 120.019531 121.183594 118.6875 121.5625 117.398438 122.078125 C 123.121094 123.078125 128.164062 121.992188 133.0625 119.183594 Z M 133.0625 119.183594 " fill-opacity="1" fill-rule="nonzero"/></g></g></g></g></g></g></g></g><g fill="#231f20" fill-opacity="1"><g transform="translate(18.487183, 155.32379)"><g><path d="M 122 -19.5 C 122.507812 -19.457031 122.90625 -19.289062 123.1875 -19 C 123.46875 -18.707031 123.585938 -18.410156 123.546875 -18.109375 C 123.398438 -17.703125 123.1875 -17.441406 122.90625 -17.328125 C 122.625 -17.222656 122.320312 -17.171875 122 -17.171875 C 118.632812 -17.285156 115.265625 -17.171875 111.890625 -16.828125 C 109.628906 -16.648438 107.335938 -16.519531 105.015625 -16.4375 C 102.710938 -16.375 100.429688 -16.234375 98.171875 -16.015625 C 97.628906 -15.972656 97.097656 -15.929688 96.578125 -15.890625 C 95.460938 -15.890625 94.925781 -15.316406 94.96875 -14.171875 C 94.925781 -13.285156 94.90625 -12.375 94.90625 -11.4375 C 94.90625 -11.15625 94.90625 -10.90625 94.90625 -10.6875 C 94.90625 -6.382812 94.90625 -2.085938 94.90625 2.203125 C 94.90625 13.753906 94.90625 25.300781 94.90625 36.84375 C 94.90625 38.90625 94.796875 40.953125 94.578125 42.984375 C 94.492188 44.054688 93.867188 44.59375 92.703125 44.59375 C 91.328125 44.632812 90.53125 44.140625 90.3125 43.109375 C 90.082031 41.429688 89.96875 39.765625 89.96875 38.109375 C 89.96875 26.671875 89.96875 15.21875 89.96875 3.75 C 89.96875 0.113281 89.96875 -3.503906 89.96875 -7.109375 C 89.96875 -7.640625 89.96875 -8.144531 89.96875 -8.625 C 89.96875 -10.320312 89.945312 -12.007812 89.90625 -13.6875 C 89.945312 -15.070312 89.320312 -15.675781 88.03125 -15.5 C 87.019531 -15.394531 86.003906 -15.304688 84.984375 -15.234375 C 80.640625 -14.867188 76.269531 -14.441406 71.875 -13.953125 C 67.957031 -13.515625 64.070312 -13.007812 60.21875 -12.4375 C 58.738281 -12.21875 57.273438 -12.019531 55.828125 -11.84375 C 55.316406 -11.738281 54.84375 -11.644531 54.40625 -11.5625 C 53.957031 -11.476562 53.539062 -11.410156 53.15625 -11.359375 C 52.09375 -11.191406 51.578125 -10.570312 51.609375 -9.5 C 51.578125 -7.851562 51.5625 -6.210938 51.5625 -4.578125 C 51.519531 -2.085938 51.5 0.375 51.5 2.8125 C 51.5 6.550781 51.5 10.285156 51.5 14.015625 C 51.5 18.015625 51.46875 22.03125 51.40625 26.0625 C 51.46875 27.351562 51.40625 28.613281 51.21875 29.84375 C 51.039062 31.019531 50.304688 31.578125 49.015625 31.515625 C 47.679688 31.578125 46.953125 31.019531 46.828125 29.84375 C 46.648438 28.289062 46.5625 26.738281 46.5625 25.1875 C 46.5625 17.601562 46.539062 10.015625 46.5 2.421875 C 46.5 -0.015625 46.5 -2.457031 46.5 -4.90625 C 46.4375 -5.164062 46.4375 -5.457031 46.5 -5.78125 C 46.5 -6.269531 46.46875 -6.753906 46.40625 -7.234375 C 46.46875 -8.742188 46.34375 -9.628906 46.03125 -9.890625 C 45.71875 -10.160156 44.84375 -10.144531 43.40625 -9.84375 C 33.476562 -8.320312 23.628906 -6.453125 13.859375 -4.234375 C 12.085938 -3.796875 10.34375 -3.304688 8.625 -2.765625 C 6.914062 -2.234375 5.242188 -1.546875 3.609375 -0.703125 C 2.710938 -0.171875 1.734375 0.0703125 0.671875 0.03125 C 0.367188 -0.0078125 0.0703125 -0.0976562 -0.21875 -0.234375 C -0.519531 -0.378906 -0.757812 -0.601562 -0.9375 -0.90625 C -1.0625 -1.269531 -1.035156 -1.582031 -0.859375 -1.84375 C -0.691406 -2.101562 -0.476562 -2.328125 -0.21875 -2.515625 C 1.070312 -3.523438 2.476562 -4.28125 4 -4.78125 C 4.082031 -4.78125 4.148438 -4.800781 4.203125 -4.84375 C 7.835938 -6.21875 11.539062 -7.257812 15.3125 -7.96875 C 24.007812 -9.882812 32.757812 -11.507812 41.5625 -12.84375 C 42.789062 -13.0625 44.050781 -13.28125 45.34375 -13.5 C 45.9375 -13.625 46.25 -13.976562 46.28125 -14.5625 C 46.363281 -15.707031 46.40625 -16.859375 46.40625 -18.015625 C 46.46875 -24.367188 46.5 -30.742188 46.5 -37.140625 C 46.5 -45.835938 46.5 -54.535156 46.5 -63.234375 C 46.5 -67.109375 46.539062 -70.976562 46.625 -74.84375 C 46.707031 -76.789062 47.722656 -77.601562 49.671875 -77.28125 C 50.703125 -77.164062 51.28125 -76.59375 51.40625 -75.5625 C 51.46875 -74.675781 51.5 -73.789062 51.5 -72.90625 C 51.5 -72.78125 51.5 -72.644531 51.5 -72.5 C 51.5 -58.738281 51.519531 -44.992188 51.5625 -31.265625 C 51.5625 -27.234375 51.5625 -23.195312 51.5625 -19.15625 C 51.5625 -18.9375 51.5625 -18.71875 51.5625 -18.5 C 51.5625 -18.050781 51.5625 -17.625 51.5625 -17.21875 C 51.5625 -15.96875 51.703125 -15.210938 51.984375 -14.953125 C 52.265625 -14.691406 53.007812 -14.671875 54.21875 -14.890625 C 56 -15.117188 57.753906 -15.34375 59.484375 -15.5625 C 62.046875 -15.925781 64.640625 -16.257812 67.265625 -16.5625 C 72.003906 -17.082031 76.78125 -17.566406 81.59375 -18.015625 C 83.445312 -18.191406 85.332031 -18.394531 87.25 -18.625 C 87.425781 -18.625 87.628906 -18.625 87.859375 -18.625 C 88.160156 -18.625 88.472656 -18.671875 88.796875 -18.765625 C 89.503906 -18.890625 89.875 -19.335938 89.90625 -20.109375 C 89.945312 -21.109375 89.96875 -22.125 89.96875 -23.15625 C 89.96875 -30.925781 89.96875 -38.675781 89.96875 -46.40625 C 89.96875 -48.96875 89.96875 -51.519531 89.96875 -54.0625 C 89.96875 -54.0625 89.988281 -54.0625 90.03125 -54.0625 C 90.03125 -56 90.03125 -57.945312 90.03125 -59.90625 C 90.03125 -68.257812 90.03125 -76.632812 90.03125 -85.03125 C 90.03125 -85.375 90.03125 -85.75 90.03125 -86.15625 C 90.09375 -86.6875 90.125 -87.203125 90.125 -87.703125 C 90.164062 -88.753906 90.601562 -89.425781 91.4375 -89.71875 C 92.28125 -90.007812 93.0625 -89.972656 93.78125 -89.609375 C 94.269531 -89.347656 94.554688 -88.953125 94.640625 -88.421875 C 94.734375 -87.398438 94.78125 -86.382812 94.78125 -85.375 C 94.820312 -67.914062 94.863281 -50.457031 94.90625 -33 C 94.90625 -30.070312 94.90625 -27.164062 94.90625 -24.28125 C 94.90625 -24.15625 94.90625 -24.023438 94.90625 -23.890625 C 94.90625 -23.484375 94.90625 -23.109375 94.90625 -22.765625 C 94.90625 -21.515625 94.953125 -20.617188 95.046875 -20.078125 C 95.140625 -19.546875 95.394531 -19.234375 95.8125 -19.140625 C 96.238281 -19.054688 96.894531 -19.046875 97.78125 -19.109375 C 98.082031 -19.109375 98.4375 -19.109375 98.84375 -19.109375 C 103.0625 -19.179688 107.257812 -19.257812 111.4375 -19.34375 C 113.914062 -19.445312 116.414062 -19.519531 118.9375 -19.5625 C 119.96875 -19.601562 120.988281 -19.582031 122 -19.5 Z M 122 -19.5 "/></g></g></g><g fill="#231f20" fill-opacity="1"><g transform="translate(119.517844, 227.999985)"><g><path d="M 46.671875 -70.65625 L 16.265625 -24.6875 L 46.671875 -24.6875 Z M 55.21875 -16.265625 L 55.21875 0 L 46.671875 0 L 46.671875 -16.265625 L 1.75 -16.265625 L 43.640625 -79.546875 L 55.09375 -79.546875 L 55.21875 -24.6875 L 65.28125 -24.6875 L 65.28125 -16.265625 Z M 55.21875 -16.265625 "/></g></g></g><g fill="#231f20" fill-opacity="1"><g transform="translate(154.906194, 255.014866)"><g><path d="M 122 -19.5 C 122.507812 -19.457031 122.90625 -19.289062 123.1875 -19 C 123.46875 -18.707031 123.585938 -18.410156 123.546875 -18.109375 C 123.398438 -17.703125 123.1875 -17.441406 122.90625 -17.328125 C 122.625 -17.222656 122.320312 -17.171875 122 -17.171875 C 118.632812 -17.285156 115.265625 -17.171875 111.890625 -16.828125 C 109.628906 -16.648438 107.335938 -16.519531 105.015625 -16.4375 C 102.710938 -16.375 100.429688 -16.234375 98.171875 -16.015625 C 97.628906 -15.972656 97.097656 -15.929688 96.578125 -15.890625 C 95.460938 -15.890625 94.925781 -15.316406 94.96875 -14.171875 C 94.925781 -13.285156 94.90625 -12.375 94.90625 -11.4375 C 94.90625 -11.15625 94.90625 -10.90625 94.90625 -10.6875 C 94.90625 -6.382812 94.90625 -2.085938 94.90625 2.203125 C 94.90625 13.753906 94.90625 25.300781 94.90625 36.84375 C 94.90625 38.90625 94.796875 40.953125 94.578125 42.984375 C 94.492188 44.054688 93.867188 44.59375 92.703125 44.59375 C 91.328125 44.632812 90.53125 44.140625 90.3125 43.109375 C 90.082031 41.429688 89.96875 39.765625 89.96875 38.109375 C 89.96875 26.671875 89.96875 15.21875 89.96875 3.75 C 89.96875 0.113281 89.96875 -3.503906 89.96875 -7.109375 C 89.96875 -7.640625 89.96875 -8.144531 89.96875 -8.625 C 89.96875 -10.320312 89.945312 -12.007812 89.90625 -13.6875 C 89.945312 -15.070312 89.320312 -15.675781 88.03125 -15.5 C 87.019531 -15.394531 86.003906 -15.304688 84.984375 -15.234375 C 80.640625 -14.867188 76.269531 -14.441406 71.875 -13.953125 C 67.957031 -13.515625 64.070312 -13.007812 60.21875 -12.4375 C 58.738281 -12.21875 57.273438 -12.019531 55.828125 -11.84375 C 55.316406 -11.738281 54.84375 -11.644531 54.40625 -11.5625 C 53.957031 -11.476562 53.539062 -11.410156 53.15625 -11.359375 C 52.09375 -11.191406 51.578125 -10.570312 51.609375 -9.5 C 51.578125 -7.851562 51.5625 -6.210938 51.5625 -4.578125 C 51.519531 -2.085938 51.5 0.375 51.5 2.8125 C 51.5 6.550781 51.5 10.285156 51.5 14.015625 C 51.5 18.015625 51.46875 22.03125 51.40625 26.0625 C 51.46875 27.351562 51.40625 28.613281 51.21875 29.84375 C 51.039062 31.019531 50.304688 31.578125 49.015625 31.515625 C 47.679688 31.578125 46.953125 31.019531 46.828125 29.84375 C 46.648438 28.289062 46.5625 26.738281 46.5625 25.1875 C 46.5625 17.601562 46.539062 10.015625 46.5 2.421875 C 46.5 -0.015625 46.5 -2.457031 46.5 -4.90625 C 46.4375 -5.164062 46.4375 -5.457031 46.5 -5.78125 C 46.5 -6.269531 46.46875 -6.753906 46.40625 -7.234375 C 46.46875 -8.742188 46.34375 -9.628906 46.03125 -9.890625 C 45.71875 -10.160156 44.84375 -10.144531 43.40625 -9.84375 C 33.476562 -8.320312 23.628906 -6.453125 13.859375 -4.234375 C 12.085938 -3.796875 10.34375 -3.304688 8.625 -2.765625 C 6.914062 -2.234375 5.242188 -1.546875 3.609375 -0.703125 C 2.710938 -0.171875 1.734375 0.0703125 0.671875 0.03125 C 0.367188 -0.0078125 0.0703125 -0.0976562 -0.21875 -0.234375 C -0.519531 -0.378906 -0.757812 -0.601562 -0.9375 -0.90625 C -1.0625 -1.269531 -1.035156 -1.582031 -0.859375 -1.84375 C -0.691406 -2.101562 -0.476562 -2.328125 -0.21875 -2.515625 C 1.070312 -3.523438 2.476562 -4.28125 4 -4.78125 C 4.082031 -4.78125 4.148438 -4.800781 4.203125 -4.84375 C 7.835938 -6.21875 11.539062 -7.257812 15.3125 -7.96875 C 24.007812 -9.882812 32.757812 -11.507812 41.5625 -12.84375 C 42.789062 -13.0625 44.050781 -13.28125 45.34375 -13.5 C 45.9375 -13.625 46.25 -13.976562 46.28125 -14.5625 C 46.363281 -15.707031 46.40625 -16.859375 46.40625 -18.015625 C 46.46875 -24.367188 46.5 -30.742188 46.5 -37.140625 C 46.5 -45.835938 46.5 -54.535156 46.5 -63.234375 C 46.5 -67.109375 46.539062 -70.976562 46.625 -74.84375 C 46.707031 -76.789062 47.722656 -77.601562 49.671875 -77.28125 C 50.703125 -77.164062 51.28125 -76.59375 51.40625 -75.5625 C 51.46875 -74.675781 51.5 -73.789062 51.5 -72.90625 C 51.5 -72.78125 51.5 -72.644531 51.5 -72.5 C 51.5 -58.738281 51.519531 -44.992188 51.5625 -31.265625 C 51.5625 -27.234375 51.5625 -23.195312 51.5625 -19.15625 C 51.5625 -18.9375 51.5625 -18.71875 51.5625 -18.5 C 51.5625 -18.050781 51.5625 -17.625 51.5625 -17.21875 C 51.5625 -15.96875 51.703125 -15.210938 51.984375 -14.953125 C 52.265625 -14.691406 53.007812 -14.671875 54.21875 -14.890625 C 56 -15.117188 57.753906 -15.34375 59.484375 -15.5625 C 62.046875 -15.925781 64.640625 -16.257812 67.265625 -16.5625 C 72.003906 -17.082031 76.78125 -17.566406 81.59375 -18.015625 C 83.445312 -18.191406 85.332031 -18.394531 87.25 -18.625 C 87.425781 -18.625 87.628906 -18.625 87.859375 -18.625 C 88.160156 -18.625 88.472656 -18.671875 88.796875 -18.765625 C 89.503906 -18.890625 89.875 -19.335938 89.90625 -20.109375 C 89.945312 -21.109375 89.96875 -22.125 89.96875 -23.15625 C 89.96875 -30.925781 89.96875 -38.675781 89.96875 -46.40625 C 89.96875 -48.96875 89.96875 -51.519531 89.96875 -54.0625 C 89.96875 -54.0625 89.988281 -54.0625 90.03125 -54.0625 C 90.03125 -56 90.03125 -57.945312 90.03125 -59.90625 C 90.03125 -68.257812 90.03125 -76.632812 90.03125 -85.03125 C 90.03125 -85.375 90.03125 -85.75 90.03125 -86.15625 C 90.09375 -86.6875 90.125 -87.203125 90.125 -87.703125 C 90.164062 -88.753906 90.601562 -89.425781 91.4375 -89.71875 C 92.28125 -90.007812 93.0625 -89.972656 93.78125 -89.609375 C 94.269531 -89.347656 94.554688 -88.953125 94.640625 -88.421875 C 94.734375 -87.398438 94.78125 -86.382812 94.78125 -85.375 C 94.820312 -67.914062 94.863281 -50.457031 94.90625 -33 C 94.90625 -30.070312 94.90625 -27.164062 94.90625 -24.28125 C 94.90625 -24.15625 94.90625 -24.023438 94.90625 -23.890625 C 94.90625 -23.484375 94.90625 -23.109375 94.90625 -22.765625 C 94.90625 -21.515625 94.953125 -20.617188 95.046875 -20.078125 C 95.140625 -19.546875 95.394531 -19.234375 95.8125 -19.140625 C 96.238281 -19.054688 96.894531 -19.046875 97.78125 -19.109375 C 98.082031 -19.109375 98.4375 -19.109375 98.84375 -19.109375 C 103.0625 -19.179688 107.257812 -19.257812 111.4375 -19.34375 C 113.914062 -19.445312 116.414062 -19.519531 118.9375 -19.5625 C 119.96875 -19.601562 120.988281 -19.582031 122 -19.5 Z M 122 -19.5 "/></g></g></g></svg>